<svg xmlns="http://www.w3.org/2000/svg" id="Layer_1" data-name="Layer 1" viewBox="33.65 179.4 432.7 141.2">
  <g>
    <path d="M464.7,263.5a31.5,31.5,0,0,0-6-9.8,34.1,34.1,0,0,0-9.1-6.6,29.5,29.5,0,0,0-10.9-2.6,29,29,0,0,0-19.2,6.8,26,26,0,0,0-8.7,15.8,28.1,28.1,0,0,0-.1,4.1l.6,3.9a18,18,0,0,0,3.1,6.2c2.6,3.3,5.8,4.8,8,5s3.5-.6,3.8-1.7-.2-4.1-1.3-6a21.5,21.5,0,0,1-2.1-3.8,7.7,7.7,0,0,1-.6-2.8,8.8,8.8,0,0,1-.2-1.7c.1-.7.1-1.3.2-2a16.2,16.2,0,0,1,5.1-9.2,22.5,22.5,0,0,1,6.1-3.7,19.9,19.9,0,0,1,8.2-1c5.8.5,12.8,4.7,16.1,12a23,23,0,0,1-5.4,25.4c-4.8,4.8-11.3,8.1-18.2,10.1a58.1,58.1,0,0,1-21.6,2c-14.5-1.3-28.9-8-38.5-19.3-2.5-2.7-4.8-5.7-7-8.6l-6.8-8.7-3.6-4.1a48.3,48.3,0,0,0-3.8-4c-1.4-1.2-2.6-2.5-4.1-3.6l-4.4-3.1c-12-7.8-26-11.4-38.9-10.4s-24.9,6.2-32.4,14.4a35.6,35.6,0,0,0-7.9,13.6,30.3,30.3,0,0,0-1.5,13.8,26.5,26.5,0,0,0,10.3,18.7c4.6,3.7,12.3,6.4,20.1,5.9a14.6,14.6,0,0,0,8.2-3.3,8.1,8.1,0,0,0,2.9-6.4c-.1-1.8-1-2.7-1.8-2.4s-1.1,1.2-1.4,2.3a9.6,9.6,0,0,1-2.5,4.4,14.5,14.5,0,0,1-6.6,3.7c-4.2,1-14.5-1.4-18.9-5.2a27.9,27.9,0,0,1-6.2-7.5,25.7,25.7,0,0,1-3.1-11.2,35.6,35.6,0,0,1,.2-6.5,40.1,40.1,0,0,1,1.8-6.8,35.8,35.8,0,0,1,8.2-12.9c7.6-7.6,19.3-12.4,31.9-12.8A61.1,61.1,0,0,1,344,255.3c11.6,7.6,18.3,21,28.5,32.4s25.3,19.1,40.9,20.6a60.5,60.5,0,0,0,23.2-1.9c7.5-2.1,14.8-5.5,20.6-11.2a30.1,30.1,0,0,0,9.1-20.4A29,29,0,0,0,464.7,263.5Z" fill="#333"/>
    <path d="M324.5,250.3c-11.3-3.5-22-3.1-29.1-1-3.6.5-6.2,2.1-8.2,2.8l-2.1.9-.7.4h.8l2.2-.7c2-.5,4.6-1.8,8.2-2.1,7.1-1.5,17.4-1.2,28.1,2.7s21.7,11.9,28.2,23.4c3.2,5.7,5.1,12.1,4.7,18.4s-2.8,11.8-6.7,15.1-8.2,3.7-11.5,2.4-5.1-3.9-6.2-6.2c-1.9-4.8-1-7.2-4.5-8.6-1.7-.6-2.9.2-3.7,2.7a14,14,0,0,0,1.9,10,16.6,16.6,0,0,0,11.3,8.1c5.1.9,10.6-.8,15.2-4.5s8.3-11.3,8.6-18.6-2-14.9-5.7-21.1C347.9,261.8,335.8,253.9,324.5,250.3Z" fill="#333"/>
    <path d="M288.8,239.6a70.9,70.9,0,0,0-6.9,3.8l-2.5,1.6,2.7-1.1c1.7-.7,4.1-2,7.1-3.1l5.2-1.6a28.6,28.6,0,0,1,6.1-1.4l6.9-1.1h7.5a71.2,71.2,0,0,1,31.9,8.1c2.5,1.5,5,2.7,7.3,4.4l6.8,5.1c4.7,3.3,9.1,6.8,14.3,8.8a34.8,34.8,0,0,0,14,2.9,20.2,20.2,0,0,0,11.5-4.4,10.9,10.9,0,0,0,4.5-7.4c-.1-2.2-1-3.4-2.9-3.5-4.1-.2-4.2,1.7-7,5a15,15,0,0,1-6.8,4.2c-3.3.5-7.4.8-11.4-1.2a16.6,16.6,0,0,1-3.3-1.6,27.9,27.9,0,0,1-3.3-1.9l-6.6-4.7-7.1-5.1c-2.4-1.7-5.2-3-7.8-4.5a72.7,72.7,0,0,0-34.1-7.3l-7.8.6-7,1.6a28.1,28.1,0,0,0-6.2,1.9Z" fill="#333"/>
    <path d="M227,256.5c-7.5-8.2-19.4-13.5-32.4-14.4s-26.9,2.6-38.9,10.4l-4.4,3.1c-1.5,1.1-2.7,2.4-4.1,3.6a48.3,48.3,0,0,0-3.8,4l-3.6,4.1L133,276c-2.2,2.9-4.5,5.9-7,8.6-9.6,11.3-24,18-38.5,19.3a58.1,58.1,0,0,1-21.6-2c-6.9-2-13.4-5.3-18.2-10.1a23,23,0,0,1-5.4-25.4c3.3-7.3,10.3-11.5,16.1-12a19.9,19.9,0,0,1,8.2,1,22.5,22.5,0,0,1,6.1,3.7,16.2,16.2,0,0,1,5.1,9.2c.1.7.1,1.3.2,2a8.8,8.8,0,0,1-.2,1.7,7.7,7.7,0,0,1-.6,2.8,21.5,21.5,0,0,1-2.1,3.8c-1.1,1.9-1.8,3.5-1.3,6s1.5,1.9,3.8,1.7,5.4-1.7,8-5a18,18,0,0,0,3.1-6.2l.6-3.9a28.1,28.1,0,0,0-.1-4.1,26,26,0,0,0-8.7-15.8,29,29,0,0,0-19.2-6.8,29.5,29.5,0,0,0-10.9,2.6,34.1,34.1,0,0,0-9.1,6.6,31.5,31.5,0,0,0-6,9.8,29,29,0,0,0-1.6,11.3,30.1,30.1,0,0,0,9.1,20.4c5.8,5.7,13.1,9.1,20.6,11.2a60.5,60.5,0,0,0,23.2,1.9c15.6-1.5,30.8-8.8,40.9-20.6s16.9-24.8,28.5-32.4a61.1,61.1,0,0,1,37.3-11.4c12.6.4,24.3,5.2,31.9,12.8a35.8,35.8,0,0,1,8.2,12.9,40.1,40.1,0,0,1,1.8,6.8,35.6,35.6,0,0,1,.2,6.5,25.7,25.7,0,0,1-3.1,11.2,27.9,27.9,0,0,1-6.2,7.5c-4.4,3.8-14.7,6.2-18.9,5.2a14.5,14.5,0,0,1-6.6-3.7,9.6,9.6,0,0,1-2.5-4.4c-.3-1.1-.5-2-1.4-2.3s-1.7.6-1.8,2.4a8.1,8.1,0,0,0,2.9,6.4,14.6,14.6,0,0,0,8.2,3.3c7.8.5,15.5-2.2,20.1-5.9a26.5,26.5,0,0,0,10.3-18.7,30.3,30.3,0,0,0-1.5-13.8A35.6,35.6,0,0,0,227,256.5Z" fill="#333"/>
    <path d="M176.3,253.2c10.7-3.9,21-4.2,28.1-2.7,3.6.3,6.2,1.6,8.2,2.1l2.2.7h.8l-.7-.4-2.1-.9c-2-.7-4.6-2.3-8.2-2.8-7.1-2.1-17.8-2.5-29.1,1s-23.4,11.5-30.8,24c-3.7,6.2-6.1,13.7-5.7,21.1s3.5,14.5,8.6,18.6,10.1,5.4,15.2,4.5a16.6,16.6,0,0,0,11.3-8.1,14,14,0,0,0,1.9-10c-.8-2.5-2-3.3-3.7-2.7-3.5,1.4-2.6,3.8-4.5,8.6-1.1,2.3-3,5.1-6.2,6.2s-7.9.6-11.5-2.4-6.4-8.9-6.7-15.1,1.5-12.7,4.7-18.4C154.6,265.1,165.7,257.1,176.3,253.2Z" fill="#333"/>
    <path d="M99.3,261.5a20.2,20.2,0,0,0,11.5,4.4,34.8,34.8,0,0,0,14-2.9c5.2-2,9.6-5.5,14.3-8.8l6.8-5.1c2.3-1.7,4.8-2.9,7.3-4.4a71.2,71.2,0,0,1,31.9-8.1h7.5l6.9,1.1a28.6,28.6,0,0,1,6.1,1.4l5.2,1.6c3,1.1,5.4,2.4,7.1,3.1l2.6,1.1c.1-.1-.8-.6-2.4-1.6a70.9,70.9,0,0,0-6.9-3.8l-5.1-2a28.1,28.1,0,0,0-6.2-1.9l-7-1.6-7.9-.6a72.6,72.6,0,0,0-34,7.3c-2.6,1.5-5.4,2.8-7.8,4.5l-7.1,5.1-6.6,4.7a27.9,27.9,0,0,1-3.3,1.9,16.6,16.6,0,0,1-3.3,1.6c-4,2-8.1,1.7-11.4,1.2a15,15,0,0,1-6.8-4.2c-2.8-3.3-2.9-5.2-7-5-1.9.1-2.8,1.3-2.9,3.5A10.9,10.9,0,0,0,99.3,261.5Z" fill="#333"/>
    <path d="M233.5,249.2c5.9,1.4,27.1,1.4,33,0a40.4,40.4,0,0,1,19.7-34.5,25.2,25.2,0,0,0-25.4,6.9,39.5,39.5,0,0,0-10.8-31,39.5,39.5,0,0,0-10.8,31,25.2,25.2,0,0,0-25.4-6.9A40.4,40.4,0,0,1,233.5,249.2Z" fill="#333"/>
    <path d="M250,189.1l.5-1c.3-.6,2.6-5.5,1.2-7.7a2.7,2.7,0,0,0-4.2,0c-1.2,2.2,1.6,7.2,1.9,7.7Z" fill="#333"/>
    <path d="M204.2,216a1.6,1.6,0,0,0,1,.2l1.8-.8a7.6,7.6,0,0,1,4.4-1.3l1.9.2-1.4-1.3a6.7,6.7,0,0,0-6-2.1,4.9,4.9,0,0,0-1.7.6,2.5,2.5,0,0,0-1.3,2.4A3.8,3.8,0,0,0,204.2,216Z" fill="#333"/>
    <path d="M292.8,215.4l1.7.8a2,2,0,0,0,1.1-.2,3.3,3.3,0,0,0,1.2-2.1,2.4,2.4,0,0,0-1.2-2.4,5.8,5.8,0,0,0-1.7-.6,6.8,6.8,0,0,0-6.1,2.1l-1.3,1.3,1.9-.2C289.8,213.9,291.5,214.7,292.8,215.4Z" fill="#333"/>
    <path d="M250,287.2s-6.1,11.4-12.9,14.5c7.2,3,12.9,18.9,12.9,18.9s5.7-15.9,12.9-18.9C256.1,298.6,250,287.2,250,287.2Z" fill="#333"/>
  </g>
</svg>