<svg xmlns="http://www.w3.org/2000/svg" id="Layer_1" data-name="Layer 1" viewBox="30 213.7 440 72.6">
  <g>
    <path d="M263.3,273.1c-.1-14,6.1-27.9,15.7-35-7-2.7-15.3.1-20.3,7,.9-11.4-2.3-23.2-8.6-31.4-6.3,8.2-9.6,20-8.7,31.4-5-6.9-13.2-9.7-20.2-7,9.5,7.1,15.8,21,15.7,35C241.6,274.6,258.6,274.6,263.3,273.1Z" fill="#333"/>
    <path d="M275.7,234c3.9,2.4,10.8-.3,8.9-5.7a4.6,4.6,0,0,0-4-3.1c-2.5,0-2.6,1.7-2.5,2.4.5,2.7,3.8,1.1,2.9,3.6s-2.6,1.4-4,.6a5.4,5.4,0,0,1-2.2-4.3,7,7,0,0,1,4.7-6.7,7.2,7.2,0,0,1,7.8,2.6,12.2,12.2,0,0,1,2.2,6.4c0,3.6-1.2,9.2-2.1,13.7a5.6,5.6,0,0,0-.4-1.2,5,5,0,0,0-1.3-1.9,1,1,0,0,0-.5-.4,1,1,0,0,0-.5-.4,3.3,3.3,0,0,0-1.2-.5h-2.1c-.2.1-.5.1-.7.3a3.1,3.1,0,0,0-1.1.9,3.7,3.7,0,0,0-.7,1.2,3.5,3.5,0,0,0-.1,2,1,1,0,0,0,.4.5h.4c.1-.1.3-.1.4-.3a.3.3,0,0,0,.1-.2v-.2a13.3,13.3,0,0,1,.6-1.2l.4-.5.5-.4.7-.2h.5l.6.3.6.4a6.9,6.9,0,0,1,1.1,1.3,10.1,10.1,0,0,1,.7,1.5,14.2,14.2,0,0,1,.5,1.6l.3,1.7-.2,2a18.2,18.2,0,0,0,.1,2,11.2,11.2,0,0,0,8.7,9.3h3.9l1.8.5,1.6.5a6,6,0,0,1,1.5.9l1.2,1.1.4.6c.1.3.2.4.2.6v.6c-.1.2-.1.4-.2.6l-.5.5a1,1,0,0,1-.5.4l-1.2.5H303l-.3.4a.6.6,0,0,0,.1.4l.5.4a3.6,3.6,0,0,0,3.2-.6,2.7,2.7,0,0,0,1-1.1l.4-.6a.6.6,0,0,1,.1-.4v-.3c0-.3.1-.5,0-.7v-.7a5,5,0,0,0-.5-1.3l-.3-.5-.4-.5a5.9,5.9,0,0,0-1.8-1.4l-1.2-.5c4.5-.6,10.2-1.5,13.8-1.3a13,13,0,0,1,6.3,2.7,7.2,7.2,0,0,1,2.1,7.9,7.2,7.2,0,0,1-7,4.3,5.4,5.4,0,0,1-4.1-2.5c-.7-1.4-.5-3.6.8-4s.8,2.5,3.4,3.2c.7.1,2.4.2,2.6-2.4a5,5,0,0,0-2.9-4.2c-5.3-2.2-8.4,4.5-6.2,8.5a8.2,8.2,0,0,0,7.1,3.4c1.9-.2,6.3-1.6,8-5.9s.1-7.5-3-10a13.4,13.4,0,0,0-9.8-2.4c5.6-2.2,5.1-6,4.5-7.3a4.9,4.9,0,0,0-5.4-2.4,3.8,3.8,0,0,0-2.5,5c.8,2.1,3.6,1.4,3.3-.3s-.1-1.6.5-1.9a2.1,2.1,0,0,1,2,.5c.8.8.5,2.8-.5,3.7a8.5,8.5,0,0,1-5.3,2.5l-7,.7c5.5-6.3,1.7-11.1.2-12.2a7.7,7.7,0,0,0-1.9-1.1,9.3,9.3,0,0,0-1-2c-1.1-1.6-5.6-5.7-12.2-.5.2-1.4.9-6.1,1.1-7.1a8.4,8.4,0,0,1,2.8-5.1,3,3,0,0,1,3.7-.2,1.9,1.9,0,0,1,.4,2c-.4.6-1.3.5-2,.4s-2.5,2.3-.4,3.3a3.9,3.9,0,0,0,5.2-2.2,4.9,4.9,0,0,0-2.1-5.5c-1.3-.8-5.1-1.5-7.7,4a13.1,13.1,0,0,0-1.7-9.9c-2.3-3.3-5.9-4.9-9.8-3.6s-6,5.7-6.4,7.6S273.9,232.8,275.7,234Zm14.1,11.4c4-5.1,9.5-3.2,10.7-.5-2.9,0-4.6,2.6-5.3,3.9v.2c-.7-.3-1.4-.4-1.8,0s-.1,2.9.4,3.4a4.6,4.6,0,0,0,1,.7l.6,1.1c.6.6,2.1,1.8,3.5.6s.3-1.1.1-1.8h.1c1.4-.7,4.1-2.3,4.3-5.2,2.6,1.4,4.2,7-1.2,10.7a9.7,9.7,0,0,1-12.3-13.1Zm11.2,1.9a3.1,3.1,0,0,1-2.8,2.9h-.4a.9.9,0,0,1,.1-.5A3,3,0,0,1,301,247.3Z" fill="#333"/>
    <path d="M180.2,276.6a8.2,8.2,0,0,0,7.1-3.4c2.2-4-.9-10.7-6.2-8.5a5,5,0,0,0-2.9,4.2c.2,2.6,1.9,2.5,2.6,2.4,2.6-.7.9-3.9,3.4-3.2s1.5,2.6.8,4a5.4,5.4,0,0,1-4.1,2.5,7.2,7.2,0,0,1-7-4.3,7.2,7.2,0,0,1,2.1-7.9,13,13,0,0,1,6.3-2.7c3.6-.2,9.3.7,13.8,1.3l-1.2.5a5.9,5.9,0,0,0-1.8,1.4l-.4.5-.3.5a5,5,0,0,0-.5,1.3v.7c-.1.2,0,.4,0,.7v.3a.6.6,0,0,1,.1.4l.4.6a2.7,2.7,0,0,0,1,1.1,3.6,3.6,0,0,0,3.2.6l.5-.4a.6.6,0,0,0,.1-.4l-.3-.4h-.5l-1.2-.5a1,1,0,0,1-.5-.4l-.5-.5c-.1-.2-.1-.4-.2-.6v-.6c0-.2.1-.3.2-.6l.4-.6,1.2-1.1a6,6,0,0,1,1.5-.9l1.6-.5,1.8-.5h3.9a11.2,11.2,0,0,0,8.7-9.3,18.2,18.2,0,0,0,.1-2l-.2-2,.3-1.7a14.2,14.2,0,0,1,.5-1.6,10.1,10.1,0,0,1,.7-1.5,6.9,6.9,0,0,1,1.1-1.3l.6-.4.6-.3h.5l.7.2.5.4.4.5a13.3,13.3,0,0,1,.6,1.2v.2a.3.3,0,0,0,.1.2c.1.2.3.2.4.3h.4a1,1,0,0,0,.4-.5,3.5,3.5,0,0,0-.1-2,3.7,3.7,0,0,0-.7-1.2,3.1,3.1,0,0,0-1.1-.9c-.2-.2-.5-.2-.7-.3h-2.1a3.3,3.3,0,0,0-1.2.5,1,1,0,0,0-.5.4,1,1,0,0,0-.5.4,5,5,0,0,0-1.3,1.9,5.6,5.6,0,0,0-.4,1.2c-.9-4.5-2.1-10.1-2.1-13.7a12.2,12.2,0,0,1,2.2-6.4,7.2,7.2,0,0,1,7.8-2.6,7,7,0,0,1,4.7,6.7,5.4,5.4,0,0,1-2.2,4.3c-1.4.8-3.6.7-4-.6s2.4-.9,2.9-3.6c.1-.7,0-2.4-2.5-2.4a4.6,4.6,0,0,0-4,3.1c-1.9,5.4,5,8.1,8.9,5.7,1.8-1.2,3.3-4.7,2.9-7.3s-2-6.2-6.4-7.6-7.5.3-9.8,3.6a13.1,13.1,0,0,0-1.7,9.9c-2.6-5.5-6.4-4.8-7.7-4a4.9,4.9,0,0,0-2.1,5.5,3.9,3.9,0,0,0,5.2,2.2c2.1-1,1.2-3.7-.4-3.3s-1.6.2-2-.4a1.9,1.9,0,0,1,.4-2,3,3,0,0,1,3.7.2,8.4,8.4,0,0,1,2.8,5.1c.2,1,.9,5.7,1.1,7.1-6.6-5.2-11.1-1.1-12.2.5a9.3,9.3,0,0,0-1,2,7.7,7.7,0,0,0-1.9,1.1c-1.5,1.1-5.3,5.9.2,12.2l-7-.7a8.5,8.5,0,0,1-5.3-2.5c-1-.9-1.3-2.9-.5-3.7a2.1,2.1,0,0,1,2-.5c.6.3.6,1.2.5,1.9s2.5,2.4,3.3.3a3.8,3.8,0,0,0-2.5-5,4.9,4.9,0,0,0-5.4,2.4c-.6,1.3-1.1,5.1,4.5,7.3a13.4,13.4,0,0,0-9.8,2.4c-3.1,2.5-4.5,6.2-3,10S178.3,276.4,180.2,276.6Zm16.5-28.8c.2,2.9,2.9,4.5,4.3,5.2h.1c-.2.7-.3,1.5.1,1.8s2.9,0,3.5-.6l.6-1.1a4.6,4.6,0,0,0,1-.7c.5-.5,1.7-2.1.4-3.4s-1.1-.3-1.8,0v-.2c-.7-1.3-2.4-3.9-5.3-3.9,1.2-2.7,6.7-4.6,10.7.5a9.7,9.7,0,0,1-12.3,13.1C192.5,254.8,194.1,249.2,196.7,247.8Zm2.3-.5a3,3,0,0,1,3.1,2.5.9.9,0,0,1,.1.5h-.4A3.1,3.1,0,0,1,199,247.3Z" fill="#333"/>
    <path d="M410.2,279c-54.3,2.3-125.4,2.4-128.2,2.4s-13-2.1-13,.6,10.5.4,12.7.4,74.9-.1,129.1,1c25,.5,51.5,5.2,51.5-2.2S453,277.2,410.2,279Z" fill="#333"/>
    <path d="M466.9,277.9a3.1,3.1,0,0,0-3,3.1,3.1,3.1,0,0,0,6.1,0A3.1,3.1,0,0,0,466.9,277.9Z" fill="#333"/>
    <path d="M218,281.4c-2.8,0-73.9-.1-128.2-2.4-42.8-1.8-52.1-5.2-52.1,2.2s26.5,2.7,51.5,2.2c54.2-1.1,126.8-1,129.1-1s12.7,2.3,12.7-.4S220.8,281.4,218,281.4Z" fill="#333"/>
    <path d="M33.1,277.9A3.1,3.1,0,0,0,30,281a3.1,3.1,0,0,0,6.1,0A3.1,3.1,0,0,0,33.1,277.9Z" fill="#333"/>
    <path d="M234.5,279.8a2.2,2.2,0,1,0,0,4.3,2.1,2.1,0,0,0,2.1-2.2A2.1,2.1,0,0,0,234.5,279.8Z" fill="#333"/>
    <path d="M265.4,279.8a2.2,2.2,0,1,0,0,4.3,2.1,2.1,0,0,0,2.1-2.2A2.1,2.1,0,0,0,265.4,279.8Z" fill="#333"/>
    <path d="M241.2,278.8a3.2,3.2,0,1,0,3.1,3.1A3.1,3.1,0,0,0,241.2,278.8Z" fill="#333"/>
    <path d="M258.9,278.8a3.2,3.2,0,0,0,0,6.3,3.2,3.2,0,1,0,0-6.3Z" fill="#333"/>
    <path d="M250,277.5a4.4,4.4,0,0,0-4.4,4.4,4.4,4.4,0,0,0,4.4,4.4,4.3,4.3,0,0,0,4.4-4.4A4.4,4.4,0,0,0,250,277.5Z" fill="#333"/>
  </g>
</svg>