<svg xmlns="http://www.w3.org/2000/svg" id="Layer_1" data-name="Layer 1" viewBox="22.9 233.97 454.1 32.03">
  <path d="M472.9,246.9a4.2,4.2,0,0,0-4.1,3.1H325.3a11.9,11.9,0,0,0-10.2-8.8c-8.4-1-15.6,4.5-23.2,10.4a118.4,118.4,0,0,1-11.8,8.2,16.8,16.8,0,0,0,3.2-8.7,16.5,16.5,0,0,0-9.3-16,11.4,11.4,0,0,0-8.7-.5,10.8,10.8,0,0,0-6.5,5.7,7.6,7.6,0,0,0-.4,6.1,7.7,7.7,0,0,0,4,4.5,5.5,5.5,0,0,0,7.4-2.6A3.9,3.9,0,0,0,268,243a3,3,0,0,0-4,1.4,2,2,0,0,0-.1,1.7,2.2,2.2,0,0,0,1.2,1.3,1.7,1.7,0,0,0,2-.4l.4-.4h0c0-.2.1-.3.1-.4h0a1.3,1.3,0,0,0-1.3-1.3h-.5a1.2,1.2,0,0,1,1.4-.3,2.3,2.3,0,0,1,1,3,3.8,3.8,0,0,1-5,1.7,5.9,5.9,0,0,1-3.1-3.5,5.5,5.5,0,0,1,.3-4.7,9.5,9.5,0,0,1,5.5-4.9,9.7,9.7,0,0,1,7.3.5,15,15,0,0,1,8.4,14.3,14.3,14.3,0,0,1-8.1,11.8,22.9,22.9,0,0,1-3.7,1.2,16.3,16.3,0,0,1-9.5-1,16.8,16.8,0,0,1-9.2-9.1,1.1,1.1,0,0,0-.9-.6.9.9,0,0,0-.9.6,17.1,17.1,0,0,1-9.2,9.1,16.7,16.7,0,0,1-9.6,1,26.5,26.5,0,0,1-3.7-1.2,14,14,0,0,1-8-11.8,14.9,14.9,0,0,1,8.3-14.3,10,10,0,0,1,7.4-.5,9.8,9.8,0,0,1,5.5,4.9,6.4,6.4,0,0,1,.3,4.7,5.9,5.9,0,0,1-3.1,3.5,3.9,3.9,0,0,1-5.1-1.7,2.3,2.3,0,0,1,1.1-3,1.1,1.1,0,0,1,1.3.3h-.4a1.3,1.3,0,0,0-1.3,1.3h0a.8.8,0,0,0,.1.4h0c0,.2.2.3.3.4a1.9,1.9,0,0,0,2.1.4,2.4,2.4,0,0,0,1.1-1.3,2,2,0,0,0-.1-1.7,2.9,2.9,0,0,0-3.9-1.4,4.1,4.1,0,0,0-1.9,5.3,5.7,5.7,0,0,0,7.5,2.6,7.7,7.7,0,0,0,4-4.5,8.1,8.1,0,0,0-.4-6.1,11,11,0,0,0-6.6-5.7,11.5,11.5,0,0,0-8.7.5,16.7,16.7,0,0,0-9.3,16,16,16,0,0,0,3.3,8.7,99,99,0,0,1-11.8-8.2c-7.6-5.9-14.8-11.4-23.2-10.4A11.9,11.9,0,0,0,175,250H31.2a4.2,4.2,0,0,0-4.1-3.3,4.2,4.2,0,0,0,0,8.4,4.2,4.2,0,0,0,4.1-3.3H174.7a10.5,10.5,0,0,0,0,2.5,7.4,7.4,0,0,0,8.1,6.5,4.7,4.7,0,0,0,4.1-5.1,3,3,0,0,0-3.4-2.7,1.6,1.6,0,0,0-1.4.8,1.7,1.7,0,0,0-.5,1.2v.2a1.3,1.3,0,0,0,2.6,0c0-.2,0-.3-.1-.4a1.2,1.2,0,0,1,1.1,1.1,2.7,2.7,0,0,1-2.5,3.1,5.4,5.4,0,0,1-6.1-4.9,10.2,10.2,0,0,1,9-11.2c7.6-.8,14.2,4.2,21.9,10.1,5.4,4.2,11.5,8.8,18.7,11.5h.3a18.2,18.2,0,0,0,7.2,1.5,19.5,19.5,0,0,0,7.1-1.4,19,19,0,0,0,9.5-8.6,18.4,18.4,0,0,0,9.4,8.6,19.5,19.5,0,0,0,7.1,1.4,18.7,18.7,0,0,0,7.3-1.5h.3c7.1-2.7,13.2-7.3,18.7-11.5,7.6-5.9,14.2-10.9,21.9-10.1a10.3,10.3,0,0,1,9,11.2,5.5,5.5,0,0,1-6.2,4.9,2.8,2.8,0,0,1-2.5-3.1,1.3,1.3,0,0,1,1.1-1.1c0,.1-.1.2-.1.4a1.3,1.3,0,1,0,2.6,0V255a2.2,2.2,0,0,0-.5-1.2,1.9,1.9,0,0,0-1.5-.8,3.1,3.1,0,0,0-3.4,2.7,4.8,4.8,0,0,0,4.1,5.1,7.3,7.3,0,0,0,8.1-6.5,10.5,10.5,0,0,0,0-2.5H468.8a4.2,4.2,0,0,0,4.1,3.4A4.1,4.1,0,0,0,477,251,4.1,4.1,0,0,0,472.9,246.9ZM29.5,251a2.4,2.4,0,1,1-2.4-2.5,2.3,2.3,0,0,1,2.4,2.3h0Zm443.4,2.4a2.4,2.4,0,0,1-2.4-2.4,2.4,2.4,0,0,1,4.8,0A2.4,2.4,0,0,1,472.9,253.4Z" fill="#333"/>
</svg>