<svg xmlns="http://www.w3.org/2000/svg" id="Layer_1" data-name="Layer 1" viewBox="17.7 238.69 464.6 22.71">
  <path d="M477.7,247.3l-.3-.2H464.2a13.2,13.2,0,0,0,1-5.1,3.3,3.3,0,0,0-2.8-3.3,2.3,2.3,0,0,0-2.5,2,1,1,0,1,0,1.9.2c0-.2.2-.3.4-.3a1.3,1.3,0,0,1,1,1.4,10.1,10.1,0,0,1-1.2,5.1H38.4a11.3,11.3,0,0,1-1.2-5.1,1.4,1.4,0,0,1,1-1.4c.2,0,.4.1.4.3a1,1,0,0,0,1.1.9,1.1,1.1,0,0,0,.9-1.1,2.4,2.4,0,0,0-2.6-2,3.2,3.2,0,0,0-2.7,3.3,11.6,11.6,0,0,0,1,5.1H22.6l-.3.2a14.4,14.4,0,0,0-4.6,10.5,3.5,3.5,0,0,0,3,3.5,2.3,2.3,0,0,0,2.6-2.1.9.9,0,0,0-.9-1.1.9.9,0,0,0-1,.9.7.7,0,0,1-.5.4,1.5,1.5,0,0,1-1.2-1.6,12.5,12.5,0,0,1,3.6-8.8h14a12.9,12.9,0,0,0,2.2,2.8l.3.2H460.7l.2-.2a15.4,15.4,0,0,0,2.3-2.8h13.5a12.5,12.5,0,0,1,3.6,8.8,1.5,1.5,0,0,1-1.2,1.6h-.3l-.2-.3a.9.9,0,0,0-1-.9.9.9,0,0,0-.9,1.1,2.4,2.4,0,0,0,2.4,2.1h.2a3.5,3.5,0,0,0,3-3.5A14.4,14.4,0,0,0,477.7,247.3ZM459.9,250H40.5l-.9-1H460.8Z" fill="#333"/>
</svg>