<svg xmlns="http://www.w3.org/2000/svg" viewBox="0 0 363.06 79.33"><g id="Layer_2" data-name="Layer 2"><g id="Layer_1-2" data-name="Layer 1"><path d="M181.56,42.68s16.76,6.13,26-8.16c8.87-13.68,37-41.77,57.51-13.76,0,0-7.78-5.42-14.54-5.74a14.37,14.37,0,0,1,1.32,4.66s-7.35-4.3-19-.32c0,0,4.11.82,5.43,2.92,0,0-12.42-.78-19.81,5.16,0,0,5.38.09,8.76,1.92,0,0-9.49,2.18-15.52,7.41S194.41,48.7,181.56,42.68Z" style="fill:#121209"/><path d="M191,42.28s8.22-1.23,10.92-5S213.8,18.17,220.83,14s4.87-9.87-2.19-8.17-12.88,14.52-15,22.28S198.39,39.94,191,42.28Z" style="fill:#121209"/><path d="M209.78,40.91s.91-.66,2.62-1.64c.86-.48,1.91-1.06,3.15-1.64a42.14,42.14,0,0,1,4.27-1.75,33,33,0,0,1,5.31-1.32,25.69,25.69,0,0,1,3-.3,19.63,19.63,0,0,1,3.14.2,17.1,17.1,0,0,1,3.18.76,12.85,12.85,0,0,1,3,1.54,9.85,9.85,0,0,1,3.89,5.58,10.32,10.32,0,0,1-.63,6.78A9.11,9.11,0,0,1,236,53.75a8.76,8.76,0,0,1-3.12.69,9.52,9.52,0,0,1-3-.36,6.42,6.42,0,0,1-2.53-1.41,6.31,6.31,0,0,1-1.56-2.19,8.33,8.33,0,0,1-.54-4.61,7.73,7.73,0,0,1,1.3-3.31,4.3,4.3,0,0,1,1.75-1.45,2,2,0,0,1,.57-.19l.2-.05-.2.05a3.08,3.08,0,0,0-.55.22,4.28,4.28,0,0,0-1.65,1.51,7.33,7.33,0,0,0-1.15,3.26,8.14,8.14,0,0,0,.64,4.39A5.9,5.9,0,0,0,230,53.57a8.92,8.92,0,0,0,2.85.27,8.5,8.5,0,0,0,2.9-.67,8.41,8.41,0,0,0,4.3-4.33,9.66,9.66,0,0,0,.55-6.32,9.12,9.12,0,0,0-3.59-5.2,11.51,11.51,0,0,0-2.82-1.48,16.27,16.27,0,0,0-3-.75,20.85,20.85,0,0,0-3-.23,27.83,27.83,0,0,0-2.92.23,31.54,31.54,0,0,0-5.26,1.18c-1.58.53-3,1.06-4.28,1.61s-2.32,1.07-3.19,1.52C210.73,40.3,209.78,40.91,209.78,40.91Z" style="fill:#121209"/><path d="M226.28,44.35A3.75,3.75,0,1,1,230,48.1,3.75,3.75,0,0,1,226.28,44.35Z" style="fill:#121209"/><path d="M202.88,30.94s.36-.61.89-1.75c.25-.57.56-1.27.86-2.09a26.64,26.64,0,0,0,.87-2.79,21.6,21.6,0,0,0,.53-3.44c.07-.62,0-1.26,0-1.91a13.65,13.65,0,0,0-.31-2,10.37,10.37,0,0,0-.66-2,7.59,7.59,0,0,0-1.14-1.8,6.27,6.27,0,0,0-3.75-2.16,6.62,6.62,0,0,0-4.26.79,5.79,5.79,0,0,0-2.67,3.22,5.56,5.56,0,0,0-.25,2,5.74,5.74,0,0,0,.39,1.89,4.2,4.2,0,0,0,1,1.53,4,4,0,0,0,1.48.86,5.29,5.29,0,0,0,2.94.08,4.84,4.84,0,0,0,2-1,2.77,2.77,0,0,0,.83-1.19,1.92,1.92,0,0,0,.08-.37c0-.08,0-.13,0-.13l0,.13a2.24,2.24,0,0,1-.11.36,2.74,2.74,0,0,1-.86,1.13,4.64,4.64,0,0,1-2,.91,5.19,5.19,0,0,1-2.82-.16,3.72,3.72,0,0,1-2.28-2.26,5.52,5.52,0,0,1-.33-1.79,5.23,5.23,0,0,1,.26-1.87,5.31,5.31,0,0,1,2.5-3,6.12,6.12,0,0,1,4-.7,5.8,5.8,0,0,1,3.5,2,7.36,7.36,0,0,1,1.09,1.7,10,10,0,0,1,.65,1.88,14.1,14.1,0,0,1,.32,1.91c0,.63.07,1.25,0,1.86a20.53,20.53,0,0,1-.46,3.4c-.25,1-.5,2-.77,2.8s-.55,1.53-.79,2.1C203.21,30.31,202.88,30.94,202.88,30.94Z" style="fill:#121209"/><path d="M199.77,20.69a2.38,2.38,0,1,0-2.58-2.16A2.37,2.37,0,0,0,199.77,20.69Z" style="fill:#121209"/><path d="M226.9,28.12s8.73-.95,15.16,3.89,7,9.82,10.33,9.59,3.56-5.25-2.56-9.78S232.61,26.39,226.9,28.12Z" style="fill:#121209"/><path d="M226.9,26.73s12.32-4.39,20.23.57,20.28,16.84,33.07,16.54S303,32.7,298.77,19.05C294.05,3.92,271.49,6.33,268,17.59c-3.3,10.72,2.19,19.73,6.64,19.36,3.94-.32,4.26-5.08,1-8.37s-3.59-14.49,1.83-17a16.93,16.93,0,0,1,18.29,3.66s5.45,6.7,1.77,17.24c0,0-5.34,12.61-21.37,10.64,0,0-7.26-1.05-20.05-10,0,0-6.32-5.15-9.27-6.6S237.59,22.45,226.9,26.73Z" style="fill:#121209"/><path d="M299.07,23.9s-2.21-8.74-8.46-9.06-7.81,4.52-8.36,7.35a3.51,3.51,0,0,1-5.94,1.71c-1.1-1.33-1.41-9.06,6.58-11.53S298.67,16.4,299.07,23.9Z" style="fill:#121209"/><path d="M292.68,39s3.62-5.2,1.31-9.22-5.7-2.17-6.63-4.11C286,22.74,289,20.58,292.28,22S298.9,32.51,292.68,39Z" style="fill:#121209"/><path d="M290.91,41.6s9.74-6.41,14.67-16.34,1.07-14.58-2.46-14.95-5.91,5.52-3.07,7.16,3.68-1.71,3-2.77c0,0,2.37,1.77.18,3.35s-5.57,0-5.17-4.2,6.1-5.82,8.85-3.54,3.29,6.52.43,12.84A43.62,43.62,0,0,1,290.91,41.6Z" style="fill:#121209"/><path d="M299.81,16.1a2.24,2.24,0,1,1,2.24,2.24A2.24,2.24,0,0,1,299.81,16.1Z" style="fill:#121209"/><path d="M296.48,39.5s5.5-5.93,12.85-8.16,10.09.93,9.94,3.39S314.83,38.14,314,36s1.59-2.32,2.24-1.72c0,0-.94-1.83-2.27-.51s-.66,3.81,2.28,4,4.67-3.51,3.43-5.65-4.08-3-8.73-1.76A30.26,30.26,0,0,0,296.48,39.5Z" style="fill:#121209"/><path d="M314.94,36.33a1.55,1.55,0,1,0-1.28-1.79A1.55,1.55,0,0,0,314.94,36.33Z" style="fill:#121209"/><path d="M305.83,27.27s5.42-9.37,17.72-7.12S341,28.25,346.87,27c0,0-3.72-2.35-4.36-4.87,0,0,10.84,4.2,20.55-6.12,0,0-10.77,3.74-17.11,0s-14.49-9.47-24.78-4.54S305.83,27.27,305.83,27.27Z" style="fill:#121209"/><path d="M181.5,42.68s-16.75,6.13-26-8.16c-8.86-13.68-37-41.77-57.5-13.76,0,0,7.78-5.42,14.53-5.74a14.65,14.65,0,0,0-1.32,4.66s7.35-4.3,19-.32c0,0-4.11.82-5.43,2.92,0,0,12.42-.78,19.82,5.16,0,0-5.39.09-8.77,1.92,0,0,9.5,2.18,15.53,7.41S168.66,48.7,181.5,42.68Z" style="fill:#121209"/><path d="M172.05,42.28s-8.22-1.23-10.91-5S149.26,18.17,142.23,14s-4.87-9.87,2.2-8.17,12.87,14.52,15,22.28S164.67,39.94,172.05,42.28Z" style="fill:#121209"/><path d="M153.28,40.91s-.91-.66-2.62-1.64c-.85-.48-1.9-1.06-3.15-1.64a42.88,42.88,0,0,0-4.26-1.75,33.51,33.51,0,0,0-5.31-1.32,26.09,26.09,0,0,0-3-.3,19.63,19.63,0,0,0-3.14.2,17.48,17.48,0,0,0-3.18.76,13,13,0,0,0-3,1.54,9.85,9.85,0,0,0-3.89,5.58,10.32,10.32,0,0,0,.64,6.78,9.06,9.06,0,0,0,4.67,4.63,8.81,8.81,0,0,0,3.12.69,9.52,9.52,0,0,0,3-.36,6.35,6.35,0,0,0,2.53-1.41,6.48,6.48,0,0,0,1.57-2.19,8.23,8.23,0,0,0,.53-4.61,7.61,7.61,0,0,0-1.3-3.31,4.3,4.3,0,0,0-1.75-1.45,1.87,1.87,0,0,0-.57-.19l-.2-.06.2.06a3.44,3.44,0,0,1,.56.22,4.26,4.26,0,0,1,1.64,1.51,7.46,7.46,0,0,1,1.16,3.26,8.26,8.26,0,0,1-.65,4.39,5.86,5.86,0,0,1-3.86,3.27,9,9,0,0,1-2.85.27,8.23,8.23,0,0,1-7.2-5,9.6,9.6,0,0,1-.55-6.32,9.06,9.06,0,0,1,3.58-5.2,11.51,11.51,0,0,1,2.82-1.48,16.46,16.46,0,0,1,3-.75,21,21,0,0,1,3-.23,27.62,27.62,0,0,1,2.92.23,31.54,31.54,0,0,1,5.26,1.18c1.59.53,3,1.06,4.28,1.61s2.32,1.07,3.19,1.52C152.34,40.3,153.28,40.91,153.28,40.91Z" style="fill:#121209"/><path d="M136.78,44.35A3.75,3.75,0,1,0,133,48.1,3.74,3.74,0,0,0,136.78,44.35Z" style="fill:#121209"/><path d="M160.19,30.94a18.62,18.62,0,0,1-.89-1.75c-.26-.57-.57-1.27-.86-2.09a22.6,22.6,0,0,1-.87-2.79,20.49,20.49,0,0,1-.54-3.44A17.31,17.31,0,0,1,157,19a12.36,12.36,0,0,1,.3-2,12,12,0,0,1,.66-2,8.29,8.29,0,0,1,1.14-1.8,6.27,6.27,0,0,1,3.76-2.16,6.6,6.6,0,0,1,4.25.79,5.61,5.61,0,0,1,2.93,5.23,6,6,0,0,1-.4,1.89,4.18,4.18,0,0,1-1,1.53,4.13,4.13,0,0,1-1.48.86,5.29,5.29,0,0,1-2.94.08,5,5,0,0,1-2-1,2.74,2.74,0,0,1-.82-1.19,1.48,1.48,0,0,1-.09-.37c0-.08,0-.13,0-.13l0,.13a1.43,1.43,0,0,0,.1.36,2.74,2.74,0,0,0,.86,1.13,4.64,4.64,0,0,0,2,.91,5.19,5.19,0,0,0,2.82-.16,3.74,3.74,0,0,0,2.29-2.26,5.52,5.52,0,0,0,.32-1.79,5.45,5.45,0,0,0-.25-1.87,5.39,5.39,0,0,0-2.5-3,6.14,6.14,0,0,0-4-.7,5.8,5.8,0,0,0-3.5,2,7.36,7.36,0,0,0-1.09,1.7,10.73,10.73,0,0,0-.65,1.88,14.1,14.1,0,0,0-.32,1.91c0,.63-.07,1.25,0,1.86a20.56,20.56,0,0,0,.45,3.4c.25,1,.5,2,.78,2.8s.54,1.53.78,2.1C159.85,30.31,160.19,30.94,160.19,30.94Z" style="fill:#121209"/><path d="M163.29,20.69a2.38,2.38,0,1,1,2.58-2.16A2.38,2.38,0,0,1,163.29,20.69Z" style="fill:#121209"/><path d="M136.16,28.12S127.44,27.17,121,32s-7,9.82-10.32,9.59-3.57-5.25,2.55-9.78S130.45,26.39,136.16,28.12Z" style="fill:#121209"/><path d="M136.16,26.73s-12.32-4.39-20.23.57S95.65,44.14,82.87,43.83,60,32.7,64.3,19.05C69,3.92,91.57,6.33,95.05,17.59,98.34,28.3,92.85,37.32,88.41,37c-4-.32-4.26-5.08-1-8.37s3.6-14.49-1.82-17a16.94,16.94,0,0,0-18.3,3.66s-5.45,6.7-1.77,17.24c0,0,5.35,12.61,21.38,10.64,0,0,7.26-1.05,20-10,0,0,6.32-5.15,9.27-6.6S125.47,22.45,136.16,26.73Z" style="fill:#121209"/><path d="M64,23.9s2.21-8.74,8.47-9.06,7.81,4.52,8.35,7.35a3.51,3.51,0,0,0,5.94,1.71c1.11-1.33,1.41-9.06-6.58-11.53S64.39,16.4,64,23.9Z" style="fill:#121209"/><path d="M70.39,39s-3.63-5.2-1.31-9.22,5.69-2.17,6.63-4.11c1.4-2.92-1.61-5.08-4.93-3.65S64.16,32.51,70.39,39Z" style="fill:#121209"/><path d="M72.15,41.6s-9.74-6.41-14.67-16.34-1.07-14.58,2.46-14.95,5.91,5.52,3.08,7.16-3.68-1.71-3-2.77c0,0-2.37,1.77-.18,3.35s5.57,0,5.18-4.2S58.92,8,56.18,10.31s-3.29,6.52-.44,12.84A43.69,43.69,0,0,0,72.15,41.6Z" style="fill:#121209"/><path d="M63.25,16.1A2.24,2.24,0,1,0,61,18.33,2.24,2.24,0,0,0,63.25,16.1Z" style="fill:#121209"/><path d="M66.59,39.5s-5.5-5.93-12.85-8.16-10.1.93-9.94,3.39S48.24,38.14,49,36s-1.59-2.32-2.24-1.72c0,0,.94-1.83,2.27-.51s.66,3.81-2.28,4-4.67-3.51-3.42-5.65,4.07-3,8.72-1.76A30.29,30.29,0,0,1,66.59,39.5Z" style="fill:#121209"/><path d="M48.13,36.33a1.55,1.55,0,1,1,1.27-1.79A1.55,1.55,0,0,1,48.13,36.33Z" style="fill:#121209"/><path d="M57.24,27.27s-5.42-9.37-17.72-7.12S22.1,28.25,16.2,27c0,0,3.71-2.35,4.35-4.87,0,0-10.84,4.2-20.55-6.12,0,0,10.78,3.74,17.11,0S31.6,6.51,41.89,11.44,57.24,27.27,57.24,27.27Z" style="fill:#121209"/><path d="M194.07,56.54a16.52,16.52,0,0,0,8.22,3c2.08.1,3.1-.41,3.1-.94,0-1.24-3.51-1.31-8.76-4.76-2.58-1.74-4.93-3.59-6.76-4.91s-3.09-2.11-3.09-2.11A21.92,21.92,0,0,0,188.23,50,18.4,18.4,0,0,0,194.07,56.54Z" style="fill:#121209"/><path d="M153.22,46.48c1.76.5,3.78,1.08,5.05,2.28a4,4,0,0,1-.18,6.33c-1.76,1.47-6.07,2.87-7.86.77a2.29,2.29,0,0,1-.56-1.72,3.16,3.16,0,0,0,2.14,1.07c5.54.56,5.3-7.48.37-7.81a5.89,5.89,0,0,0-3.21.87c-5.29,3-3.65,10.58,1.2,13.2,6.21,3.37,16.07-.64,21.2-4A27.55,27.55,0,0,0,178.3,51c1.7-2.28,2.26-4.72,3.59-7.11,1.33,2.39,1.88,4.83,3.59,7.11a27.51,27.51,0,0,0,6.92,6.53c5.14,3.35,15,7.36,21.2,4,4.85-2.62,6.49-10.17,1.2-13.2a5.88,5.88,0,0,0-3.2-.87c-4.94.33-5.17,8.37.36,7.81a3.19,3.19,0,0,0,2.15-1.07,2.25,2.25,0,0,1-.56,1.72c-1.79,2.1-6.12.7-7.87-.77a4,4,0,0,1-.17-6.33c1.26-1.2,3.29-1.78,5-2.28,8.37-2.37,16.17,4.27,10.65,11.17-3.14,3.92-10.39,6.06-15.85,6.3a23.43,23.43,0,0,1-17.81-7c.31.48.68,1,1.06,1.43,2.08,2.5,5.66,4.92,5.6,8.27-.07,6.13-9.1,8-12.31,12.7-3.21-4.72-12.23-6.57-12.32-12.7,0-3.35,3.53-5.77,5.6-8.27.4-.48.74-1,1.07-1.43a23.41,23.41,0,0,1-17.81,7c-5.47-.24-12.72-2.38-15.86-6.3C137.05,50.75,144.87,44.11,153.22,46.48Zm19.12,21c-.13,4.79,6.29,6.93,9.55,10.09,3.25-3.16,9.68-5.3,9.56-10.09-.1-3.61-4.53-6.34-6.62-9.15a18.73,18.73,0,0,1-2.94-5.57,18.77,18.77,0,0,1-2.95,5.57C176.86,61.09,172.43,63.82,172.34,67.43Z" style="fill:#121209"/><path d="M176.92,69.92a21.27,21.27,0,0,0,2.29,2l2.68,2.15L184.57,72a20.24,20.24,0,0,0,2.28-2,5.65,5.65,0,0,0,1.41-2.51A5.48,5.48,0,0,0,187,63.08c-1-1.35-2.36-2.55-3.29-4a18.76,18.76,0,0,1-1.8-3.72,18.23,18.23,0,0,1-1.8,3.72c-1,1.41-2.29,2.61-3.29,4a5.4,5.4,0,0,0-1.28,4.33A5.63,5.63,0,0,0,176.92,69.92Z" style="fill:#121209"/><path d="M158.39,58.61c0,.53,1,1,3.1.94a16.55,16.55,0,0,0,8.22-3A18.65,18.65,0,0,0,175.56,50,21.48,21.48,0,0,0,177,46.83s-1.27.77-3.08,2.11-4.19,3.17-6.76,4.91C161.91,57.3,158.38,57.37,158.39,58.61Z" style="fill:#121209"/><path d="M181.3,41c.1.06.8.38.82.41-5.36-6-9.59-13.27-8-20.8S182.16,7.82,177.42.21a1.4,1.4,0,0,0-.29.09c3,8.68-4.55,13.19-6.15,21.23C169.48,29.06,173.82,36.39,181.3,41Z" style="fill:#121209"/><path d="M191.89,20.85c-2.15-7.92-10-11.92-7.58-20.78A1,1,0,0,0,184,0c-4.22,7.89,2.68,12.81,4.72,20.12s-1.69,15-6.62,21.28c0,0,.72-.39.82-.46C190.08,35.87,193.91,28.27,191.89,20.85Z" style="fill:#121209"/><path d="M180.53,35.14a11,11,0,0,0,1.41.71c-2.63-6.89-5.05-14.08-1.4-21.18,0,.06-.41.05-.47.14C175.89,21,174.22,29.54,180.53,35.14Z" style="fill:#121209"/><path d="M182.37,14.73c-.07-.08-.44,0-.48-.1,4.12,6.85,2.19,14.17.05,21.22a12.45,12.45,0,0,0,1.36-.8C189.2,29.05,187,20.69,182.37,14.73Z" style="fill:#121209"/></g></g></svg>