<svg xmlns="http://www.w3.org/2000/svg" id="Layer_1" data-name="Layer 1" viewBox="27.5 292.1 445 13.2">
  <path d="M465.9,292.1a6.4,6.4,0,0,0-6,4.1,6.7,6.7,0,0,0-6.1-4.1,6.5,6.5,0,0,0-6.5,5.8H52.7a6.5,6.5,0,0,0-6.5-5.8,6.7,6.7,0,0,0-6.1,4.1,6.4,6.4,0,0,0-6-4.1,6.6,6.6,0,0,0,0,13.2,6.4,6.4,0,0,0,6-4.1,6.7,6.7,0,0,0,6.1,4.1,6.5,6.5,0,0,0,6.5-5.7H447.3a6.5,6.5,0,0,0,6.5,5.7,6.7,6.7,0,0,0,6.1-4.1,6.4,6.4,0,0,0,6,4.1,6.6,6.6,0,1,0,0-13.2ZM34.1,303.6a4.9,4.9,0,1,1,0-9.8,4.9,4.9,0,0,1,0,9.8Zm12.1,0a4.9,4.9,0,0,1,0-9.8,4.9,4.9,0,0,1,0,9.8Zm407.6,0a4.9,4.9,0,0,1,0-9.8,4.9,4.9,0,0,1,0,9.8Zm12.1,0a4.9,4.9,0,0,1,0-9.8,4.9,4.9,0,1,1,0,9.8Z" fill="#333"/>
</svg>