<svg xmlns="http://www.w3.org/2000/svg" id="Layer_1" data-name="Layer 1" viewBox="42.33 198.5 415.35 102.9">
  <g>
    <path d="M165.5,238.8a47.7,47.7,0,0,0,13.9,8.1,90.5,90.5,0,0,0,15.1,4.6,104.1,104.1,0,0,0,15.6,2,151.9,151.9,0,0,1-15.1-3.9,92.4,92.4,0,0,1-14.4-5.4c-4.5-2.3-9-4.8-12.6-8.2a24.2,24.2,0,0,1-6.8-9.4,63.8,63.8,0,0,1,12.2,1.6,65.9,65.9,0,0,1,14.4,4.8,45.1,45.1,0,0,1,12.6,8.5l2.8,2.6,2.5,3a21.8,21.8,0,0,1,2.2,3.1c.7,1,1.5,2.1,2.2,3.3-1.1-2-2-4.9-3.6-7l-2.2-3.3c-.8-1.1-1.7-2-2.5-3.1a48,48,0,0,0-12.6-9.8,56.3,56.3,0,0,0-14.9-5.8,71.4,71.4,0,0,0-16-1.9h-2.5l.6,2.5A28.2,28.2,0,0,0,165.5,238.8Z" fill="#333"/>
    <path d="M66.6,282.6a1.9,1.9,0,0,0-1.9,1.9,2,2,0,0,0,1.9,1.9,1.9,1.9,0,0,0,1.9-1.9A1.8,1.8,0,0,0,66.6,282.6Z" fill="#333"/>
    <path d="M56.8,268.7a2,2,0,0,0,2-1.9,1.9,1.9,0,0,0-2-1.9,1.9,1.9,0,0,0-1.9,1.9A2,2,0,0,0,56.8,268.7Z" fill="#333"/>
    <circle cx="78.4" cy="286.9" r="1.9" fill="#333"/>
    <circle cx="91.7" cy="286.9" r="1.9" fill="#333"/>
    <path d="M105.5,282.6a1.9,1.9,0,0,0-2,1.9,2,2,0,0,0,2,1.9,2,2,0,0,0,1.9-1.9A1.9,1.9,0,0,0,105.5,282.6Z" fill="#333"/>
    <path d="M118.3,279.2a1.9,1.9,0,0,0,0,3.8,1.9,1.9,0,0,0,0-3.8Z" fill="#333"/>
    <path d="M195.1,294.8a2,2,0,0,0-1.9,1.9,1.9,1.9,0,0,0,1.9,1.9,1.8,1.8,0,0,0,1.9-1.9A1.9,1.9,0,0,0,195.1,294.8Z" fill="#333"/>
    <path d="M203.2,285.2a1.9,1.9,0,1,0,0,3.8,1.9,1.9,0,0,0,0-3.8Z" fill="#333"/>
    <path d="M210.1,274.7a1.9,1.9,0,0,0-1.9,1.9,1.9,1.9,0,1,0,3.8,0A1.9,1.9,0,0,0,210.1,274.7Z" fill="#333"/>
    <path d="M215.5,263.5a2,2,0,0,0-1.9,1.9,1.9,1.9,0,0,0,1.9,1.9,1.8,1.8,0,0,0,1.9-1.9A1.9,1.9,0,0,0,215.5,263.5Z" fill="#333"/>
    <path d="M302.6,294.8a1.9,1.9,0,0,0-1.9,1.9,1.8,1.8,0,0,0,1.9,1.9,1.9,1.9,0,0,0,1.9-1.9A2,2,0,0,0,302.6,294.8Z" fill="#333"/>
    <path d="M294.5,285.2a1.9,1.9,0,0,0,0,3.8,1.9,1.9,0,0,0,0-3.8Z" fill="#333"/>
    <path d="M287.6,274.7a1.9,1.9,0,0,0-1.9,1.9,1.8,1.8,0,0,0,1.9,1.9,1.9,1.9,0,0,0,1.9-1.9A2,2,0,0,0,287.6,274.7Z" fill="#333"/>
    <path d="M282.1,263.5a2,2,0,0,0-1.9,1.9,1.9,1.9,0,0,0,1.9,1.9,1.9,1.9,0,0,0,2-1.9A2,2,0,0,0,282.1,263.5Z" fill="#333"/>
    <path d="M455.4,277.2a14.9,14.9,0,0,0-6.9-4.9,15.2,15.2,0,0,0-11.3.1,15.3,15.3,0,0,0,1.3-5.1,16.5,16.5,0,0,0-2-9.5,12.8,12.8,0,0,0-7.3-6.4,11.4,11.4,0,0,0-9.5,1.8,8,8,0,1,0,11.4,10.6,8,8,0,0,1-7.8,3.6,7.6,7.6,0,0,1-5.9-5.7,6.8,6.8,0,0,1,3.2-7.2,9.1,9.1,0,0,1,8-1.2c5.3,1.8,8.1,8.3,7.4,13.8a12.4,12.4,0,0,1-3.4,7.3,15.9,15.9,0,0,1-7.3,4c-5.6,1.5-11.7,1-17.6.2s-11.8-2.3-17.8-3.6c-9.9-2.1-19.6-4.7-29.4-7.3l5.2-.3a91.3,91.3,0,0,0,15.6-2.9A49.3,49.3,0,0,0,396,258a28.4,28.4,0,0,0,10.5-12.7l.9-2.4-2.4-.3a67.5,67.5,0,0,0-16.2.2,58.4,58.4,0,0,0-15.4,4.1,47.6,47.6,0,0,0-13.6,8.4l-2.9,2.7-2.5,3.1a20.9,20.9,0,0,0-2.9,4.2c-22.6-6-45.7-11.9-69.5-12a72,72,0,0,0-18.5,2.1,36.1,36.1,0,0,0-13.5,6.9,36.1,36.1,0,0,0-13.5-6.9,72,72,0,0,0-18.5-2.1c-23.5.1-46.4,5.9-68.8,11.8a31.7,31.7,0,0,0-3.6-5.4l-2.5-3a38.3,38.3,0,0,0-2.9-2.8,47.6,47.6,0,0,0-13.6-8.4,58.4,58.4,0,0,0-15.4-4.1,67.5,67.5,0,0,0-16.2-.1l-2.4.3.9,2.3A27.4,27.4,0,0,0,104,256.6a46.9,46.9,0,0,0,14.7,6.5,91.3,91.3,0,0,0,15.6,2.9c3.2.3,6.5.4,9.8.5-11.3,3-22.6,6.1-34,8.5-6,1.3-11.9,2.8-17.8,3.6s-12,1.3-17.6-.2a15.9,15.9,0,0,1-7.3-4,12.4,12.4,0,0,1-3.4-7.3c-.7-5.5,2.1-12,7.4-13.8a9.1,9.1,0,0,1,8,1.2,6.8,6.8,0,0,1,3.2,7.2,7.6,7.6,0,0,1-5.9,5.7,8,8,0,0,1-7.8-3.6,8.2,8.2,0,0,0,7.8,4.2,8.1,8.1,0,0,0,3.6-14.8,11.4,11.4,0,0,0-9.5-1.8,12.8,12.8,0,0,0-7.3,6.4,16.5,16.5,0,0,0-2,9.5,15.3,15.3,0,0,0,1.3,5.1,15.2,15.2,0,0,0-11.3-.1,14.9,14.9,0,0,0-6.9,4.9,10.3,10.3,0,0,0-2.1,8.3,10.5,10.5,0,0,0,4.7,6.9A7.8,7.8,0,0,0,58.9,285a7.8,7.8,0,0,0-4.5-6.4,7.9,7.9,0,0,1,4.3,6.5,7.6,7.6,0,0,1-3.6,6.7,7,7,0,0,1-7.5,0,9.8,9.8,0,0,1-4-6.5,8.8,8.8,0,0,1,2-7.3,13.5,13.5,0,0,1,6.4-4.3,13.9,13.9,0,0,1,13.1,2.2l.3.5a19.8,19.8,0,0,0,8.5,4.9c6.3,1.9,12.7,1.5,18.8.7s12.2-2.3,18.1-3.5c10.1-2,20-4.5,29.8-7.1l-1.1.5a29.8,29.8,0,0,0-8.6,6.3,44.9,44.9,0,0,0-6.3,8.7,48.3,48.3,0,0,0-3.9,10l-.6,2.4h2.5a18.9,18.9,0,0,0,10.7-3.7,30,30,0,0,0,7.4-7.7,58.9,58.9,0,0,0,5.3-9,57.2,57.2,0,0,0,3.5-9.8A93.5,93.5,0,0,1,138.3,286a31,31,0,0,1-7.1,6.5,17.3,17.3,0,0,1-5.8,2.5,39,39,0,0,1,2.6-6.4,44.5,44.5,0,0,1,5.2-8.3,33.3,33.3,0,0,1,7.3-6.7l2-1.4,2.3-1.1a10.7,10.7,0,0,1,2.2-1l2.5-1h-.4c19.4-5.4,39-10.4,58.9-12.2a28.3,28.3,0,0,0-5.6,1.3l-3.7,1.3-3.6,1.7a49.8,49.8,0,0,0-12.7,9.7,62.9,62.9,0,0,0-9.3,13,65.6,65.6,0,0,0-5.8,15.1l-.6,2.4h2.5a27.4,27.4,0,0,0,15.6-5.3,47.4,47.4,0,0,0,11.3-11.5,93.5,93.5,0,0,0,8.2-13.5,109.2,109.2,0,0,0,5.7-14.3l8-.5a62.9,62.9,0,0,1,17.9,1.6,34.5,34.5,0,0,1,12.6,5.8l-1.2,1.1c-4.3,4.6-7.2,10.7-7.1,17a15.1,15.1,0,0,0,2.7,8.9,8.8,8.8,0,0,0,6.8,4h.6a8.8,8.8,0,0,0,6.8-4,15.1,15.1,0,0,0,2.7-8.9c.1-6.3-2.8-12.4-7.1-17l-1.2-1.1a34.5,34.5,0,0,1,12.6-5.8,62.9,62.9,0,0,1,17.9-1.6l8,.5a109.2,109.2,0,0,0,5.7,14.3,93.5,93.5,0,0,0,8.2,13.5,47.4,47.4,0,0,0,11.3,11.5,27.4,27.4,0,0,0,15.6,5.3h2.5l-.6-2.4a65.6,65.6,0,0,0-5.8-15.1,62.9,62.9,0,0,0-9.3-13,49.8,49.8,0,0,0-12.7-9.7l-3.6-1.7-3.7-1.3A28.3,28.3,0,0,0,292,257c19.9,1.8,39.5,6.8,58.9,12.2h-.4l2.5,1a10.7,10.7,0,0,1,2.2,1l2.3,1.1,2,1.4a33.3,33.3,0,0,1,7.3,6.7,44.5,44.5,0,0,1,5.2,8.3,39,39,0,0,1,2.6,6.4,17.3,17.3,0,0,1-5.8-2.5,31,31,0,0,1-7.1-6.5,93.5,93.5,0,0,1-11.2-16.9,57.2,57.2,0,0,0,3.5,9.8,58.9,58.9,0,0,0,5.3,9,30,30,0,0,0,7.4,7.7,18.9,18.9,0,0,0,10.7,3.7h2.5l-.6-2.4a48.3,48.3,0,0,0-3.9-10,44.9,44.9,0,0,0-6.3-8.7,29.8,29.8,0,0,0-8.6-6.3l-1.1-.5c9.8,2.6,19.7,5.1,29.8,7.1,5.9,1.2,11.9,2.7,18.1,3.5s12.5,1.2,18.8-.7a19.8,19.8,0,0,0,8.5-4.9l.3-.5a13.9,13.9,0,0,1,13.1-2.2,13.5,13.5,0,0,1,6.4,4.3,8.8,8.8,0,0,1,2,7.3,9.8,9.8,0,0,1-4,6.5,7,7,0,0,1-7.5,0,7.6,7.6,0,0,1-3.6-6.7,7.9,7.9,0,0,1,4.3-6.5,7.8,7.8,0,0,0-4.5,6.4,7.8,7.8,0,0,0,11.7,7.4,10.5,10.5,0,0,0,4.7-6.9A10.3,10.3,0,0,0,455.4,277.2Zm-335.8-17a50.7,50.7,0,0,1-13.4-6.6,27.3,27.3,0,0,1-7.9-8.7,73.4,73.4,0,0,1,12.4.2,76.1,76.1,0,0,1,14.9,3.2,49.3,49.3,0,0,1,13.4,7.1l3.1,2.3,2.7,2.7a22.7,22.7,0,0,1,2.6,2.8l1.6,1.9-2.7.8c-4-.5-7.9-1-11.8-1.8A96.1,96.1,0,0,1,119.6,260.2Zm83,10a92.4,92.4,0,0,1-8.9,12.6,53.1,53.1,0,0,1-11,10.2,27.3,27.3,0,0,1-10.8,4.3,67.9,67.9,0,0,1,4.5-11.6,74.9,74.9,0,0,1,8.3-12.7,45.3,45.3,0,0,1,11.4-10l3.2-2.1,3.5-1.7a25.5,25.5,0,0,1,3.5-1.4l2.9-1h.8C207.7,261.4,205.3,265.9,202.6,270.2Zm48.7-4.1a24.1,24.1,0,0,1,7.5,15.7,14.1,14.1,0,0,1-2.2,8.5c-1.4,2.3-3.8,4.3-6.6,4.4s-5.2-2.1-6.6-4.4a14.1,14.1,0,0,1-2.2-8.5,24.1,24.1,0,0,1,7.5-15.7L250,265Zm101.3-1.6a32.5,32.5,0,0,1,2.6-2.7l2.7-2.7,3.1-2.3a46.7,46.7,0,0,1,13.4-7.1,69.5,69.5,0,0,1,14.9-3.2,73.4,73.4,0,0,1,12.4-.2,25.9,25.9,0,0,1-7.9,8.6c-3.9,3-8.6,5-13.4,6.7a96.1,96.1,0,0,1-14.9,3.9c-2.7.5-5.5,1-8.2,1.3l-2.9-.8-2.5-.6Zm-58.9-6.7a25.5,25.5,0,0,1,3.5,1.4l3.5,1.7,3.2,2.1a45.3,45.3,0,0,1,11.4,10,74.9,74.9,0,0,1,8.3,12.7,67.9,67.9,0,0,1,4.5,11.6,27.3,27.3,0,0,1-10.8-4.3,53.1,53.1,0,0,1-11-10.2,92.4,92.4,0,0,1-8.9-12.6c-2.7-4.3-5.1-8.8-7.4-13.4h.8Z" fill="#333"/>
    <path d="M292.1,250.2a21.8,21.8,0,0,1,2.2-3.1l2.5-3,2.8-2.6a45.1,45.1,0,0,1,12.6-8.5,65.9,65.9,0,0,1,14.4-4.8,63.8,63.8,0,0,1,12.2-1.6A24.2,24.2,0,0,1,332,236c-3.6,3.4-8.1,5.9-12.6,8.2a92.4,92.4,0,0,1-14.4,5.4,151.9,151.9,0,0,1-15.1,3.9,104.1,104.1,0,0,0,15.6-2,90.5,90.5,0,0,0,15.1-4.6,47.7,47.7,0,0,0,13.9-8.1,28.2,28.2,0,0,0,9.1-13.7l.6-2.5h-2.5a71.4,71.4,0,0,0-16,1.9,56.3,56.3,0,0,0-14.9,5.8,48,48,0,0,0-12.6,9.8c-.8,1.1-1.7,2-2.5,3.1l-2.2,3.3c-1.6,2.1-2.5,5-3.6,7C290.6,252.3,291.4,251.2,292.1,250.2Z" fill="#333"/>
    <path d="M433.4,282.6a1.8,1.8,0,0,0-1.9,1.9,1.9,1.9,0,0,0,1.9,1.9,2,2,0,0,0,1.9-1.9A1.9,1.9,0,0,0,433.4,282.6Z" fill="#333"/>
    <path d="M443.2,268.7a2,2,0,0,0,1.9-1.9,1.9,1.9,0,0,0-1.9-1.9,1.9,1.9,0,0,0-2,1.9A2,2,0,0,0,443.2,268.7Z" fill="#333"/>
    <circle cx="421.6" cy="286.9" r="1.9" fill="#333"/>
    <circle cx="408.3" cy="286.9" r="1.9" fill="#333"/>
    <path d="M394.5,282.6a1.9,1.9,0,0,0-1.9,1.9,2,2,0,0,0,1.9,1.9,2,2,0,0,0,2-1.9A1.9,1.9,0,0,0,394.5,282.6Z" fill="#333"/>
    <path d="M381.7,279.2a1.9,1.9,0,1,0,0,3.8,1.9,1.9,0,1,0,0-3.8Z" fill="#333"/>
    <path d="M214.3,232.7a28.6,28.6,0,0,0,9.3,11.1,37.7,37.7,0,0,0,13,5.7,43.6,43.6,0,0,0,13.9,1.1,63.8,63.8,0,0,1-13.2-3.3,45.2,45.2,0,0,1-11.6-6.4,27.1,27.1,0,0,1-7.9-9.9c-1.8-3.2-2.4-6.9-3-10.5l4.7.4a53.2,53.2,0,0,1,6.7,1.4,46.4,46.4,0,0,1,6.6,2.2,55.2,55.2,0,0,1,5.5,2.6,35.7,35.7,0,0,0,2.4,13.4c1.9,4.4,5.2,8.6,9.8,10.1a17.2,17.2,0,0,1-8-10.7,34.3,34.3,0,0,1-1.2-13.5,41.8,41.8,0,0,1,3.1-13.1,30.6,30.6,0,0,1,6.2-9.5,23.7,23.7,0,0,1,6,9.3,42.5,42.5,0,0,1,2.7,13.2,38.8,38.8,0,0,1-1,13.6c-1.1,4.3-3.5,8.6-7.8,10.7,4.7-1.2,7.9-5.7,9.7-10.1a43.6,43.6,0,0,0,2.2-14.3,47.5,47.5,0,0,0-2.2-14.4c-1.8-4.6-4.1-9-8.7-12.4l-1.1-.9-1.1,1a32.9,32.9,0,0,0-8.4,12.4,41.7,41.7,0,0,0-2.6,14.4v.5A40.5,40.5,0,0,0,227,220a56.8,56.8,0,0,0-7-2.2,42.8,42.8,0,0,0-7.3-1h-1.9v2A34.7,34.7,0,0,0,214.3,232.7Z" fill="#333"/>
    <path d="M275.6,222.3a53.2,53.2,0,0,1,6.7-1.4l4.7-.4c-.6,3.6-1.2,7.3-3,10.5a26.4,26.4,0,0,1-8,9.9,43,43,0,0,1-11.5,6.4,63.8,63.8,0,0,1-13.2,3.3,43.6,43.6,0,0,0,13.9-1.1,38.5,38.5,0,0,0,13-5.7,28.6,28.6,0,0,0,9.3-11.1c2.3-4.4,3-9.3,3.4-14v-2h-1.9a42.8,42.8,0,0,0-7.3,1,51.9,51.9,0,0,0-7,2.2,40.4,40.4,0,0,0-12.2,7.6,50.3,50.3,0,0,1,13-5.3Z" fill="#333"/>
  </g>
</svg>