<?xml version="1.0" encoding="utf-8"?>
<!-- Generator: Adobe Illustrator 19.0.0, SVG Export Plug-In . SVG Version: 6.00 Build 0)  -->
<svg version="1.1" id="Layer_1" xmlns="http://www.w3.org/2000/svg" xmlns:xlink="http://www.w3.org/1999/xlink" x="0px" y="0px"
	 viewBox="0 0 800 800" style="enable-background:new 0 0 800 800;" xml:space="preserve">
<style type="text/css">
	.st0{fill:#010101;}
</style>
<g>
	<path id="XMLID_26_" class="st0" d="M614.4,288.3H508.4l2.4,3.3h102.2C613.6,290.6,614.1,289.5,614.4,288.3z"/>
	<path id="XMLID_25_" class="st0" d="M565.8,257.2v0.3c1.2-0.2,2.3-0.3,3.5-0.4c3.6-0.3,7.3-0.4,11.2-0.1c4.1,0.3,8.4,0.9,12.6,2
		c3.7,1,7.3,2.2,10.2,3.7c2.9,1.5,5.3,3.3,7.1,5.3c2,2.1,3.5,4.5,4.4,6.8c0.9,2.2,1.3,4.4,1.3,6.4c0.2,4.9-1,10.3-4.6,13.8
		c-1.1,1.1-2.5,2.2-4.1,3c-1.5,0.8-3.2,1.4-5,1.9c-1.8,0.4-3.7,0.6-5.6,0.6c-2.2,0-4.4-0.1-6.1-0.4c-0.9-0.2-1.7-0.4-2.3-0.6
		c0-0.1-0.1-0.3-0.1-0.5c-0.4-1.1-1.4-2.2-2.6-2.4c-1.5-0.3-2.8,0.9-2.6,2.4c0,0.4,0.3,0.9,0.6,1.4c0.5,0.6,1.4,1.2,2.7,1.8
		c1,0.4,2.3,0.8,3.9,1c1.9,0.3,4.1,0.5,6.6,0.5c2.1,0,4.3-0.2,6.2-0.7c2.1-0.4,4.1-1.2,5.8-2.1c1.9-1,3.6-2.2,4.9-3.6
		c4.9-5,7.7-15.2,6.5-22.3c-0.3-1.8-0.9-3.6-1.6-5.4c-0.7-1.8-1.7-3.6-2.7-5.1c-1-1.6-2.1-2.9-3.4-4.1c-1.3-1.2-2.7-2.3-4.3-3.4
		c-1.6-1.1-3.5-2.1-5.6-3.1c-2.1-1-4.4-1.9-7-2.7c-2.7-0.8-5.7-1.5-9-2c-3-0.4-6.2-0.6-9.7-0.6c-3.7,0-7.6,0.4-11.5,0.9l-1.1,0.2
		c0.3,0.8,0.5,1.6,0.7,2.4C565.6,253.9,565.8,255.6,565.8,257.2z"/>
	<path class="st0" d="M236.1,262.2c0.2,1.6,0.6,3,1.2,4.4c0.6,1.4,1.4,2.8,2.4,4.2c1.1,1.5,2.6,3.1,4.4,4.6c1.6,1.3,3.3,2.5,5.2,3.5
		c2,1,4.1,1.8,6.4,2.3c2.3,0.6,4.8,0.9,7.3,0.9c2.5,0.1,5-0.1,7.9-0.7c2.8-0.6,5.9-1.6,9.5-3.2l0.1,0l-3.4-2c-2.6,1-4.8,1.7-6.9,2.2
		c-2.6,0.5-4.9,0.6-7.1,0.6c-2.3-0.1-4.6-0.3-6.7-0.9c-2-0.5-3.9-1.2-5.7-2.1c-1.7-0.9-3.2-2-4.6-3.1c-1.6-1.3-2.9-2.8-3.9-4.1
		c-0.9-1.3-1.6-2.4-2-3.5c-0.5-1.1-0.8-2.3-1-3.6c-0.2-1.4-0.3-2.9-0.3-4.4c0-1.4,0.2-2.9,0.4-4.2c0.3-1.3,0.7-2.5,1.2-3.7
		c2-4.2,6.2-7,10.7-8.3c1.6-0.4,3.4-0.8,5.3-0.9c2.1-0.2,4.2-0.1,6.3,0.1c2,0.2,3.9,0.5,5.8,1.1c2,0.5,4.1,1.3,6.4,2.3
		c2.4,1.1,5.1,2.4,8,4c2.7,1.5,5.5,3.2,8.4,5.1c3.4,2.3,6.9,4.8,10.4,7.3l1.1,0.8c-4.2,2.9-8.5,5.8-12.6,8.3
		c-1.3,0.8-2.6,1.5-3.8,2.3l3.1,1.9l2.4-1.4c4.1-2.6,8.5-5.4,12.8-8.4l0.9-0.7c1.6,1.1,3.2,2.3,4.8,3.3c3.1,2.1,6.1,4,9.1,5.7
		c3,1.6,6.1,3.1,9.3,4.2c3,1.1,6.1,2,9.1,2.6c3.4,0.8,6.7,1.3,9.5,1.5c5.8,0.5,12.2-0.6,17.9-3.1c6.7-2.9,12.6-7.7,15.7-14
		c0.8-1.6,1.3-3.1,1.7-4.8c0.3-1.6,0.4-3.3,0.3-5.1c-0.1-1.9-0.3-3.9-0.7-5.8c-0.4-1.9-0.9-3.7-1.7-5.5c-0.7-1.8-1.7-3.5-2.6-5
		c-1.1-1.7-2.3-3.1-3.5-4.4c-1-1.1-2.1-2-3.1-2.7c-1.3-0.9-2.4-1.6-3.4-2c-1.4-0.7-3.5-1.4-4.9-0.3c-1.1,0.9-1.1,2.5-0.3,3.5
		c0.6,0.8,1.7,1.2,2.7,1.3c0.4,0,0.8,0,1.1-0.1c0.5-0.1,1.2-0.3,1.6-0.7c0.4,0.2,0.8,0.5,1.2,0.8c0.9,0.6,1.8,1.4,2.7,2.4
		c1,1.1,2.1,2.4,3.1,3.9c0.9,1.4,1.7,2.9,2.4,4.5c0.6,1.6,1.1,3.3,1.5,5c0.4,1.8,0.6,3.6,0.7,5.3c0.1,1.6,0,3-0.3,4.4
		s-0.7,2.7-1.4,4c-0.7,1.3-1.6,2.6-2.6,3.9c-3.4,4.1-8.9,7.6-14.1,8.6c-2.1,0.4-4.6,0.6-7.1,0.6c-2.7,0-5.4-0.3-8.2-0.7
		c-2.7-0.4-5.3-1-7.8-1.8c-2.6-0.8-5.1-1.7-7.5-2.9c-2.5-1.1-4.9-2.4-7.3-3.8c-2.4-1.4-4.8-3-7.2-4.6c-1.3-0.9-2.7-1.9-4.1-2.9
		l2.3-1.7c2.9-2.1,5.7-4,8.2-5.8c1.1,1.1,2.2,2.1,3.4,3c1.9,1.6,3.9,2.9,5.8,4c1.9,1,3.8,1.8,5.6,2.3c1.8,0.5,3.6,0.8,5.2,0.9
		c1.6,0.1,3.2,0,4.7-0.2c1.5-0.2,3-0.6,4.2-1.2c1.3-0.6,2.4-1.3,3.4-2.2c1-0.9,1.7-1.9,2.3-3.1s1-2.5,1.1-3.9c0.1-1.4,0-2.8-0.3-4.2
		c-0.4-1.5-1-3-2.1-4.4c-0.9-1.1-2.1-2.1-3.7-2.8c-1.5-0.7-3.4-1-5.4-1.1c-2.1-0.1-4.3,0.1-6.6,0.6c-2.1,0.4-4.3,1.1-6.7,2.1
		c-2.4,1-5,2.5-8.1,4.4c-0.7,0.5-1.4,1-2.2,1.5l-0.2-0.3c-0.6-0.8-1.1-1.6-1.6-2.4c-0.4-0.8-0.8-1.8-1.2-2.8
		c-0.4-1.1-0.7-2.3-0.9-3.4c-0.3-1.1-0.4-2.3-0.6-3.6c-0.1-1.3-0.3-2.5-0.3-3.8c-0.1-1.3-0.1-2.6,0-4c0.1-1.4,0.2-2.7,0.5-4.2
		c0.3-1.4,0.7-2.8,1.1-4.2c0.5-1.4,1.1-2.9,1.9-4.2c0.7-1.3,1.4-2.5,2.3-3.6c0.9-1.1,1.9-2.2,3-3.3c1.3-1.2,2.7-2.3,4.3-3.4
		c1.5-1,3.1-1.9,5-2.7c2-0.9,4.1-1.6,6.4-2.2c9.6-2.5,21.2-2.8,29.9,2.1c2,1.1,3.8,2.4,5.4,3.8l-0.1,1c-0.4,3.1-0.6,6.2-0.3,9.3
		c0.2,2.9,0.8,5.8,1.6,8.4c0.9,2.9,2,5.5,3.1,7.6c1.1,1.9,2.2,3.3,3.3,4.3c1.4,1.2,2.7,1.9,4,2c1.3,0.2,2.5-0.1,3.6-0.7
		c1-0.6,1.9-1.5,2.5-2.7c0.6-1.1,1-2.4,1-4.1c0-1.6-0.3-3.4-1.1-5.6c-0.7-2.1-1.9-4.5-3.4-7c-1.4-2.5-3.2-5.1-5-7.4
		c-1.7-2.3-3.6-4.3-5.6-6.2c0.7-3.3,1.7-6.7,3.4-9.6c0.9-1.5,1.9-2.9,3-4.3c0.6-0.7,1.3-1.6,2-2.4c0.9-1,1.7-1.9,2.6-2.7
		c0.8-0.8,1.5-1.6,2.3-2.3c0.7-0.7,1.5-1.4,2.3-2.1c0.9-0.7,1.7-1.5,2.7-2.3c0.9,0.7,1.8,1.5,2.7,2.3c0.9,0.7,1.6,1.4,2.3,2.1
		c0.8,0.7,1.5,1.4,2.3,2.3c0.8,0.8,1.7,1.7,2.6,2.7c0.7,0.8,1.4,1.6,2,2.4c1.1,1.3,2.1,2.8,3,4.3c1.6,2.9,2.7,6.3,3.3,9.6
		c-2,1.9-3.8,3.9-5.6,6.2c-1.8,2.4-3.5,5-5,7.4c-1.5,2.5-2.7,5-3.4,7c-0.8,2.2-1.1,4-1.1,5.6c0,1.6,0.4,3,1,4.1
		c0.6,1.2,1.5,2.1,2.5,2.7c1,0.6,2.2,0.9,3.5,0.7c1.3-0.2,2.7-0.8,4-2c1.1-1,2.2-2.4,3.3-4.3c1.1-2,2.2-4.7,3.1-7.6
		c0.8-2.6,1.3-5.5,1.6-8.4c0.2-3.1,0.1-6.1-0.3-9.3l-0.2-1c1.7-1.4,3.5-2.6,5.5-3.8c8.8-4.9,20.3-4.6,29.9-2.1
		c2.3,0.6,4.5,1.3,6.4,2.2c1.9,0.8,3.5,1.7,5,2.7c1.7,1.1,3.1,2.3,4.3,3.4c1.2,1.1,2.2,2.2,3.1,3.3c0.9,1.1,1.6,2.3,2.3,3.6
		c0.7,1.3,1.3,2.7,1.8,4.2c0.5,1.4,0.9,2.9,1.2,4.2c0.3,1.4,0.4,2.8,0.5,4.2s0,2.7,0,4c-0.1,1.3-0.1,2.6-0.3,3.8
		c-0.1,1.2-0.3,2.4-0.6,3.6c-0.2,1.2-0.6,2.3-0.9,3.4c-0.3,1-0.7,2-1.2,2.8c-0.5,0.9-1,1.7-1.6,2.4h0l-0.2,0.3
		c-0.7-0.5-1.5-1-2.2-1.5c-3.1-2-5.7-3.4-8.1-4.4c-2.4-1-4.6-1.7-6.7-2.1c-2.2-0.4-4.5-0.7-6.6-0.6c-2,0.1-3.9,0.4-5.4,1.1
		c-1.6,0.7-2.8,1.7-3.7,2.8c-1,1.3-1.7,2.9-2.1,4.4c-0.4,1.4-0.4,2.8-0.3,4.2c0.1,1.4,0.5,2.7,1.1,3.9c0.6,1.2,1.4,2.2,2.3,3.1
		c1,0.9,2.1,1.6,3.4,2.2c1.3,0.6,2.7,1,4.2,1.2c1.5,0.3,3.1,0.3,4.7,0.2c1.7-0.1,3.4-0.3,5.2-0.9c1.8-0.5,3.7-1.3,5.6-2.3
		c1.9-1.1,3.9-2.4,5.7-4c1.2-0.9,2.3-2,3.4-3c2.5,1.7,5.3,3.7,8.2,5.8l2.3,1.7c-1.4,1-2.8,2-4.1,2.9c-2.4,1.6-4.8,3.1-7.2,4.6
		c-2.4,1.4-4.8,2.7-7.3,3.8c-2.4,1.1-4.9,2.1-7.5,2.9c-2.6,0.8-5.2,1.4-7.8,1.8c-2.7,0.4-5.6,0.7-8.2,0.7c-2.5,0-4.9-0.2-7.1-0.6
		c-5.3-1-10.7-4.5-14.1-8.6c-1.1-1.3-2-2.6-2.6-3.9s-1.1-2.6-1.3-4s-0.3-2.8-0.3-4.4c0.1-1.6,0.3-3.4,0.7-5.3c0.3-1.7,0.9-3.4,1.5-5
		c0.6-1.6,1.4-3.1,2.3-4.5c1-1.5,2-2.8,3.1-3.9c0.9-1,1.9-1.7,2.7-2.4c0.4-0.3,0.9-0.6,1.2-0.8c0.4,0.3,1.1,0.6,1.7,0.7
		c0.3,0.1,0.7,0.1,1.1,0.1c1-0.1,2-0.4,2.7-1.3c0.9-1,0.8-2.6-0.3-3.5c-1.4-1.1-3.4-0.4-4.9,0.3c-1,0.4-2.1,1.1-3.4,2
		c-1,0.7-2.1,1.7-3.1,2.7c-1.2,1.3-2.4,2.7-3.4,4.4c-1,1.6-1.9,3.3-2.6,5c-0.7,1.8-1.3,3.7-1.7,5.5c-0.4,2-0.7,4-0.7,5.8
		c-0.1,1.8,0,3.5,0.3,5.1c0.3,1.7,0.8,3.2,1.6,4.8c3.2,6.3,9,11.1,15.7,14c5.7,2.5,12,3.6,17.9,3.1c2.8-0.2,6.1-0.7,9.5-1.5
		c3-0.7,6.1-1.6,9.1-2.6c3.2-1.1,6.2-2.6,9.3-4.2c3-1.7,6-3.6,9.1-5.7c1.6-1.1,3.2-2.2,4.8-3.3l1,0.7c4.3,2.9,8.6,5.8,12.8,8.4
		l2.4,1.4l3.1-1.9c-1.2-0.7-2.5-1.5-3.8-2.3c-4.1-2.6-8.4-5.4-12.6-8.3l1.1-0.8c3.5-2.5,7-5,10.4-7.3c2.9-1.9,5.8-3.6,8.4-5.1
		c2.9-1.6,5.6-2.9,8-4c2.3-1,4.3-1.7,6.3-2.3c2-0.6,3.9-0.9,5.8-1.1c2-0.2,4.2-0.3,6.3-0.1c1.9,0.1,3.8,0.4,5.4,0.9
		c4.4,1.3,8.6,4.1,10.7,8.3c0.6,1.1,0.9,2.4,1.2,3.7c0.3,1.3,0.4,2.8,0.4,4.2c0,1.5,0,3-0.3,4.4c-0.2,1.3-0.5,2.5-0.9,3.6
		c-0.5,1.1-1.1,2.3-2.1,3.5c-1,1.3-2.3,2.8-3.9,4.1c-1.4,1.1-2.9,2.2-4.6,3.1c-1.8,0.9-3.7,1.6-5.7,2.1c-2.1,0.5-4.4,0.8-6.7,0.9
		c-2.2,0-4.5-0.1-7.1-0.6c-2.1-0.4-4.3-1.1-6.9-2.2l-3.3,2l0.1,0c3.6,1.6,6.7,2.7,9.5,3.2c2.9,0.6,5.4,0.7,7.9,0.7
		c2.5-0.1,5-0.4,7.3-0.9c2.3-0.5,4.4-1.3,6.4-2.3c1.9-1,3.6-2.2,5.1-3.5c1.8-1.5,3.3-3.1,4.4-4.6c1.1-1.4,1.9-2.8,2.5-4.2
		c0.6-1.4,0.9-2.9,1.1-4.4c0.2-1.5,0.3-3.2,0.3-4.9c0-1.6-0.2-3.3-0.5-4.8c-0.3-1.6-0.8-3-1.4-4.4c-1.5-3.1-3.9-5.6-6.6-7.7
		c-1.5-1.1-3.1-2.1-4.8-3c-1.7-0.9-3.5-1.6-5.4-2.1c-3.9-1.1-7.7-1.3-11.7-0.9c-2.1,0.2-4.3,0.6-6.4,1.1c-2.1,0.5-4.1,1.1-6.3,2
		c-2.1,0.9-4.3,1.9-6.8,3.2c-2.3,1.2-4.7,2.7-7.2,4.2c-2.8,1.7-5.7,3.7-8.5,5.6c-2.7,1.9-5.4,3.9-8.2,5.8l-3.2-2.3
		c-2.7-2-5.4-3.9-7.8-5.6c1.4-1.7,2.7-3.4,3.7-5.2c1.1-2,2-4,2.7-6.2c0.7-2.2,1.2-4.5,1.4-6.9c0.3-2.4,0.3-4.7,0.1-7
		c-0.2-2.3-0.6-4.4-1.3-6.5c-0.7-2.1-1.5-4-2.6-5.9c-1.1-1.9-2.3-3.7-3.7-5.4c-1.4-1.7-3.1-3.3-5-4.9c-2-1.6-4.2-3.1-6.7-4.4
		c-2.2-1.2-4.7-2.2-7.3-3c-2.7-0.8-5.6-1.3-8.6-1.5c-3-0.2-6-0.1-9.1,0.3c-3.1,0.4-6.3,1.1-9.4,2.1c-3,1-5.9,2.2-8.5,3.7
		c-1.6,0.9-3.1,1.9-4.6,3c-1.1-4.6-2.9-8.8-5.3-12.9c-1.6-2.7-3.4-5.3-5.2-7.5c-3.4-4-6.9-7-10.5-9.9c-3.6,2.9-7.1,5.9-10.5,9.9
		c-1.9,2.2-3.6,4.7-5.2,7.5c-2.3,4.1-4.1,8.3-5.2,12.9c-1.4-1.1-3-2.1-4.6-3c-2.6-1.5-5.5-2.7-8.5-3.7c-3-1-6.2-1.7-9.4-2.1
		c-3.1-0.4-6.1-0.5-9.1-0.3c-3,0.2-5.9,0.7-8.6,1.5c-2.6,0.8-5,1.8-7.3,3c-2.4,1.3-4.7,2.8-6.7,4.4c-1.9,1.6-3.6,3.2-5,4.9
		c-1.4,1.7-2.7,3.6-3.7,5.4c-1.1,1.9-1.9,3.8-2.6,5.9c-0.7,2-1.1,4.2-1.3,6.5c-0.2,2.2-0.1,4.6,0.1,7c0.3,2.4,0.7,4.7,1.4,6.9
		c0.7,2.2,1.6,4.2,2.7,6.2c1,1.8,2.3,3.6,3.7,5.2c-2.5,1.7-5.1,3.6-7.9,5.6l-3.2,2.3c-2.7-1.9-5.4-3.9-8.2-5.8
		c-2.8-1.9-5.7-3.9-8.5-5.6c-2.4-1.5-4.9-3-7.2-4.2c-2.4-1.3-4.7-2.3-6.8-3.2c-2.1-0.8-4.2-1.5-6.3-2c-2.1-0.6-4.3-0.9-6.4-1.1
		c-4-0.4-7.8-0.2-11.7,0.9c-1.9,0.5-3.7,1.2-5.4,2.1c-1.7,0.9-3.3,1.9-4.8,3c-2.7,2.1-5.1,4.6-6.6,7.7c-0.7,1.4-1.1,2.9-1.5,4.4
		c-0.3,1.5-0.5,3.2-0.5,4.8C235.8,259,235.8,260.6,236.1,262.2z M327.4,247.7c3-1.9,5.4-3.2,7.7-4.2c2.2-1,4.1-1.6,6-2
		c2-0.4,4-0.6,5.8-0.6c1.6,0.1,3.1,0.3,4.3,0.8c1,0.5,1.9,1.1,2.5,1.9c0.7,0.9,1.2,2,1.5,3.1c0.3,1.1,0.3,2.1,0.2,3.1
		c-0.1,1-0.4,2-0.8,2.8c-0.4,0.8-0.9,1.6-1.6,2.1c-0.7,0.7-1.6,1.2-2.6,1.6c-1,0.4-2.2,0.8-3.4,1c-1.3,0.2-2.6,0.3-4,0.2
		s-2.9-0.3-4.5-0.7c-1.6-0.4-3.2-1.1-4.9-2c-1.7-1-3.5-2.2-5.3-3.6c-0.9-0.7-1.9-1.6-2.7-2.4L327.4,247.7z M472.4,251.3
		c-1.7,1.4-3.5,2.7-5.3,3.6c-1.7,0.9-3.3,1.6-4.9,2c-1.6,0.4-3.1,0.7-4.5,0.7c-1.4,0.1-2.8,0-4-0.2c-1.3-0.2-2.4-0.5-3.4-1
		c-1-0.4-1.8-1-2.5-1.6c-0.7-0.6-1.2-1.3-1.6-2.1c-0.4-0.9-0.7-1.8-0.8-2.8c-0.1-1,0-2.1,0.3-3.1c0.3-1.1,0.7-2.2,1.5-3.1
		c0.6-0.8,1.4-1.4,2.4-1.9c1.2-0.5,2.6-0.7,4.3-0.8c1.8,0,3.8,0.1,5.8,0.6c1.9,0.4,3.9,1,6.1,2c2.2,1,4.7,2.3,7.6,4.2l1.8,1.2
		C474.2,249.7,473.3,250.6,472.4,251.3z M419.3,214.1c-0.2,2.7-0.7,5.4-1.4,7.8c-0.8,2.7-1.8,5-2.8,6.9c-0.9,1.6-1.8,2.7-2.6,3.4
		c-0.9,0.8-1.7,1.1-2.4,1.3c-0.6,0.1-1,0-1.5-0.3c-0.5-0.3-0.9-0.8-1.3-1.4c-0.3-0.7-0.6-1.6-0.6-2.6c0-1.2,0.3-2.6,0.9-4.4
		c0.7-1.9,1.8-4.1,3.1-6.5c1.4-2.4,3-4.9,4.8-7.1c1.2-1.5,2.4-3,3.7-4.3C419.4,209.2,419.5,211.7,419.3,214.1z M381.5,206.8
		c1.3,1.3,2.5,2.7,3.7,4.3c1.7,2.2,3.4,4.7,4.8,7.1c1.4,2.4,2.5,4.6,3.1,6.5c0.7,1.8,0.9,3.3,0.9,4.4c0,1.1-0.2,1.9-0.6,2.6
		c-0.3,0.6-0.8,1.1-1.3,1.4c-0.4,0.2-0.9,0.3-1.5,0.3c-0.7-0.1-1.5-0.5-2.3-1.3c-0.9-0.8-1.8-1.9-2.6-3.4c-1-1.8-2-4.2-2.8-6.9
		c-0.7-2.4-1.2-5.1-1.4-7.8C381.2,211.7,381.2,209.2,381.5,206.8z"/>
	<path id="XMLID_19_" class="st0" d="M618.8,291.6h69.7l-2.5-3.3h-65.9C619.7,289.5,619.3,290.5,618.8,291.6z"/>
	<path id="XMLID_18_" class="st0" d="M613.1,507.5H510.9l-2.4,3.3h105.9C614.1,509.6,613.6,508.5,613.1,507.5z"/>
	<path id="XMLID_17_" class="st0" d="M422.3,278.5c-0.3,0.2-0.5,0.5-0.6,0.9c-0.1,0.4-0.2,1.1-0.1,2.1c0.4,3,1.9,6.4,3.4,8.9
		c1.2,2,2.8,4.1,4.6,6.1c1.7,1.8,3.5,3.5,5.5,4.9c2.1,1.5,4.4,2.6,6.8,3.4c2.4,0.8,5.1,1.3,8,1.6c3.1,0.3,6.6,0.3,10.3,0
		c3.2-0.4,6.6-1,10.2-2.1c3.8-1.1,7.8-2.8,12.2-5c4.4-2.2,9.2-4.9,14.7-8.2c4-2.4,7.9-4.8,11.9-7.3c8.2-5,16.8-10.3,23.9-14.3
		c8.3-4.5,16.4-8.3,25.6-10.6l2-0.5c0-0.4,0-0.8,0-1.2c0-1.4-0.1-2.7-0.4-4.1c-0.2-0.9-0.4-1.7-0.7-2.5c-1.7,0.4-3.5,0.8-5.1,1.3
		c-3.6,1-7,2.3-10.5,3.9c-3.5,1.6-7,3.4-10.8,5.5c-3.6,2-7.5,4.3-11.5,6.6c-4.6,2.7-9.3,5.6-13.8,8.4l-6.8,4.3
		c-5.6,3.6-10.7,6.8-15.4,9.5c-3.2,1.8-6.1,3.4-8.9,4.6c-2.7,1.3-5.3,2.3-7.9,3.1c-2.5,0.8-5,1.4-7.3,1.8c-2.3,0.4-4.5,0.7-6.4,0.9
		c-1.9,0.2-3.7,0.3-5.2,0.3c-1.6,0-3-0.1-4.5-0.3c-7.5-1-13.7-5.1-17.7-11.7c-1.2-2-2.3-4.4-2.8-6.8c0.2-0.5,0.3-1.1,0.3-1.6
		C425.2,278.9,423.8,277.4,422.3,278.5z"/>
	<path id="XMLID_16_" class="st0" d="M445.4,498.5c1.4-0.2,2.9-0.3,4.5-0.3c1.6,0,3.3,0.1,5.2,0.3c1.9,0.2,4.1,0.5,6.4,0.9
		c2.3,0.4,4.8,1,7.3,1.9c2.5,0.8,5.1,1.8,7.9,3.1c2.7,1.3,5.7,2.8,8.9,4.7c4.7,2.7,9.8,5.9,15.4,9.4l6.8,4.3
		c4.4,2.8,9.2,5.7,13.8,8.4c4,2.4,7.9,4.6,11.5,6.6c3.9,2.1,7.3,3.9,10.8,5.5c3.5,1.6,6.9,2.8,10.5,3.9c1.7,0.5,3.4,0.9,5.1,1.3
		c0.3-0.8,0.6-1.7,0.7-2.5c0.3-1.3,0.4-2.7,0.4-4.1c0-0.4,0-0.8,0-1.2l-2-0.5c-9.2-2.3-17.3-6.1-25.6-10.6
		c-7.1-3.9-15.7-9.2-23.9-14.3c-4-2.4-7.8-4.8-11.9-7.2c-5.5-3.3-10.3-6-14.7-8.2c-4.4-2.2-8.3-3.9-12.2-5c-3.6-1.1-7-1.7-10.2-2.1
		c-3.7-0.4-7.2-0.4-10.3-0.1c-2.9,0.3-5.6,0.8-8,1.6c-2.4,0.8-4.7,1.9-6.8,3.4c-2,1.4-3.9,3.1-5.5,4.9c-1.9,2-3.4,4.1-4.6,6.1
		c-1.6,2.6-3,5.9-3.4,8.9c-0.1,1-0.1,1.7,0.1,2.1c0.1,0.4,0.4,0.7,0.6,0.9c1.5,1.2,2.9-0.4,2.9-1.8c0-0.6-0.1-1.1-0.3-1.7
		c0.5-2.3,1.6-4.8,2.8-6.8C431.7,503.6,437.9,499.5,445.4,498.5z"/>
	<path id="XMLID_15_" class="st0" d="M181.8,507.5h-69.6l2.4,3.3h66C180.9,509.6,181.4,508.5,181.8,507.5z"/>
	<path id="XMLID_14_" class="st0" d="M234.8,541.8l0-0.3c-1.1,0.2-2.3,0.3-3.5,0.4c-3.6,0.4-7.3,0.4-11.2,0.1c-4.1-0.3-8.5-1-12.6-2
		c-3.7-0.9-7.2-2.2-10.2-3.7c-2.9-1.5-5.3-3.3-7.1-5.3c-2-2.1-3.5-4.5-4.4-6.8c-0.9-2.2-1.3-4.4-1.3-6.4c-0.2-4.9,1-10.3,4.6-13.8
		c1.1-1.1,2.5-2.2,4.1-3c1.5-0.8,3.1-1.4,5-1.8c1.8-0.4,3.7-0.6,5.6-0.6c2.2,0,4.3,0.2,6,0.5c0.9,0.1,1.7,0.3,2.3,0.5
		c0,0.2,0.1,0.3,0.2,0.5c0.4,1,1.4,2.1,2.6,2.4c1.5,0.3,2.8-0.9,2.6-2.4c0-0.4-0.2-0.9-0.6-1.4c-0.5-0.6-1.4-1.2-2.7-1.8
		c-1-0.4-2.3-0.7-3.9-1c-1.9-0.3-4.2-0.5-6.6-0.5c-2.1,0-4.2,0.2-6.2,0.6c-2.1,0.5-4.1,1.2-5.8,2.1c-1.9,1-3.6,2.3-4.9,3.6
		c-4.9,4.9-7.6,15.2-6.4,22.2c0.3,1.8,0.8,3.6,1.6,5.4c0.7,1.8,1.6,3.6,2.6,5.1c1,1.5,2.1,2.9,3.4,4.1c1.3,1.2,2.7,2.3,4.3,3.4
		c1.6,1.1,3.4,2.1,5.5,3.2c2.1,1,4.4,1.9,7,2.7c2.7,0.9,5.7,1.5,9,2c3,0.4,6.2,0.6,9.6,0.6c3.7-0.1,7.6-0.4,11.5-1l1.1-0.1
		c-0.3-0.8-0.5-1.6-0.6-2.5C235,545.1,234.8,543.5,234.8,541.8z"/>
	<path class="st0" d="M564.6,536.9c-0.2-1.6-0.6-3-1.1-4.4c-0.6-1.4-1.4-2.8-2.5-4.3c-1.1-1.5-2.6-3.1-4.4-4.6
		c-1.5-1.3-3.3-2.5-5.1-3.5c-2-1-4.1-1.8-6.4-2.4c-2.3-0.6-4.8-0.9-7.3-0.9c-2.5-0.1-5,0.1-7.9,0.7c-2.8,0.6-5.9,1.6-9.5,3.2
		l-0.1,0.1l3.3,2c2.6-1,4.8-1.7,6.9-2.1c2.6-0.5,4.9-0.7,7.1-0.6c2.3,0,4.6,0.3,6.7,0.9c2,0.4,3.9,1.1,5.7,2c1.7,0.9,3.2,2,4.6,3.1
		c1.6,1.3,2.9,2.8,3.9,4.1c0.9,1.2,1.6,2.4,2.1,3.5c0.4,1.1,0.7,2.3,0.9,3.7c0.2,1.4,0.3,2.9,0.3,4.4c0,1.4-0.1,2.9-0.4,4.2
		c-0.3,1.3-0.6,2.5-1.2,3.7c-2,4.2-6.3,7-10.7,8.3c-1.6,0.5-3.4,0.8-5.4,0.9c-2.1,0.1-4.2,0.1-6.3-0.1c-2-0.2-3.9-0.6-5.8-1.1
		c-2-0.6-4-1.3-6.3-2.3c-2.4-1-5.1-2.4-8-4c-2.7-1.5-5.5-3.2-8.4-5.1c-3.4-2.3-6.9-4.8-10.4-7.3l-1.1-0.8c4.2-2.9,8.5-5.8,12.6-8.3
		c1.3-0.8,2.6-1.6,3.8-2.3l-3.1-1.9l-2.4,1.4c-4.1,2.6-8.5,5.4-12.8,8.4l-1,0.6c-1.6-1.1-3.2-2.3-4.8-3.3c-3.1-2.1-6.1-4-9.1-5.6
		c-3-1.7-6.1-3.1-9.3-4.3c-3-1.1-6.1-2-9.1-2.6c-3.4-0.7-6.7-1.3-9.5-1.5c-5.8-0.5-12.1,0.6-17.9,3.1c-6.7,2.9-12.6,7.7-15.7,14
		c-0.8,1.6-1.3,3.2-1.6,4.8c-0.3,1.6-0.4,3.3-0.3,5.1c0.1,1.9,0.3,3.9,0.7,5.8c0.4,1.9,1,3.7,1.7,5.5c0.7,1.8,1.6,3.5,2.6,5
		c1.1,1.7,2.3,3.1,3.4,4.4c1.1,1.1,2.1,2,3.1,2.7c1.3,0.9,2.4,1.6,3.4,2c1.4,0.6,3.5,1.3,4.9,0.2c1.1-0.9,1.2-2.4,0.3-3.5
		c-0.7-0.8-1.7-1.2-2.7-1.3c-0.4,0-0.8,0-1.1,0.1c-0.6,0.1-1.2,0.4-1.7,0.7c-0.4-0.3-0.8-0.5-1.2-0.9c-0.9-0.6-1.8-1.4-2.7-2.4
		c-1.1-1.1-2.1-2.4-3.1-3.9c-0.9-1.4-1.7-2.9-2.3-4.5c-0.7-1.6-1.2-3.3-1.5-5c-0.4-1.8-0.6-3.6-0.7-5.3c0-1.6,0-3,0.3-4.4
		c0.3-1.3,0.7-2.6,1.3-4c0.7-1.3,1.6-2.6,2.6-3.9c3.4-4.1,8.9-7.6,14.1-8.6c2.1-0.4,4.6-0.6,7.1-0.6c2.7,0,5.5,0.3,8.2,0.7
		c2.6,0.4,5.2,1,7.8,1.8c2.6,0.8,5,1.7,7.5,2.8c2.5,1.1,4.9,2.4,7.3,3.8c2.4,1.4,4.8,3,7.2,4.6c1.4,0.9,2.7,1.9,4.1,2.9l-2.3,1.7
		c-2.9,2.1-5.7,4-8.2,5.8c-1.1-1-2.2-2.1-3.4-3c-1.9-1.6-3.9-2.9-5.7-3.9c-1.9-1.1-3.8-1.8-5.6-2.3c-1.8-0.5-3.5-0.8-5.2-0.9
		c-1.6-0.1-3.2,0-4.7,0.2c-1.5,0.3-2.9,0.7-4.2,1.2c-1.3,0.6-2.5,1.3-3.4,2.2c-1,0.9-1.7,1.9-2.3,3.1c-0.6,1.2-0.9,2.5-1.1,4
		c-0.1,1.3,0,2.8,0.3,4.1c0.4,1.6,1,3.1,2.1,4.4c0.9,1.2,2.1,2.2,3.7,2.9c1.5,0.6,3.4,1,5.4,1c2.1,0.1,4.3-0.1,6.6-0.6
		c2.1-0.4,4.3-1.1,6.7-2.1c2.4-1,5-2.4,8.1-4.4c0.7-0.4,1.5-1,2.2-1.4l0.2,0.3h0c0.6,0.7,1.1,1.5,1.6,2.4c0.4,0.9,0.9,1.8,1.2,2.8
		c0.4,1.1,0.7,2.3,0.9,3.4c0.3,1.1,0.4,2.3,0.6,3.6c0.1,1.3,0.2,2.5,0.3,3.8c0,1.3,0.1,2.7,0,4c-0.1,1.3-0.2,2.7-0.5,4.1
		c-0.3,1.4-0.7,2.8-1.2,4.2c-0.5,1.5-1.1,2.9-1.8,4.2c-0.7,1.3-1.4,2.5-2.3,3.6c-0.9,1.1-1.9,2.2-3.1,3.3c-1.2,1.2-2.7,2.4-4.3,3.4
		c-1.5,1-3.1,1.9-5,2.7c-2,0.9-4.1,1.6-6.4,2.3c-9.6,2.5-21.1,2.8-29.9-2.1c-2-1.1-3.8-2.4-5.5-3.8l0.2-1c0.4-3.1,0.5-6.2,0.3-9.2
		c-0.3-2.9-0.8-5.8-1.6-8.4c-0.9-2.9-1.9-5.6-3.1-7.6c-1.1-1.9-2.2-3.3-3.3-4.3c-1.3-1.2-2.7-1.8-4-2c-1.3-0.2-2.5,0.1-3.5,0.7
		c-1,0.6-1.9,1.6-2.5,2.7c-0.6,1.1-1,2.4-1,4c0,1.6,0.3,3.4,1.1,5.6c0.7,2.1,1.9,4.6,3.4,7c1.4,2.5,3.1,5.1,5,7.4
		c1.8,2.3,3.6,4.3,5.6,6.2c-0.7,3.3-1.7,6.7-3.3,9.6c-0.9,1.5-1.9,3-3,4.3c-0.6,0.7-1.3,1.5-2,2.3c-0.9,1-1.7,1.9-2.6,2.7
		c-0.8,0.8-1.5,1.5-2.3,2.2c-0.7,0.7-1.4,1.4-2.3,2.1c-0.9,0.7-1.7,1.5-2.7,2.2c-0.9-0.7-1.8-1.5-2.7-2.2c-0.9-0.8-1.6-1.4-2.3-2.1
		c-0.8-0.7-1.5-1.4-2.3-2.2c-0.8-0.9-1.7-1.8-2.6-2.7c-0.7-0.8-1.4-1.6-2-2.3c-1.1-1.3-2.1-2.8-3-4.3c-1.7-2.9-2.7-6.3-3.4-9.6
		c2-1.9,3.9-3.9,5.6-6.2c1.8-2.4,3.6-4.9,5-7.4c1.4-2.5,2.6-4.9,3.4-7c0.8-2.2,1.1-4,1.1-5.6c0-1.6-0.4-3-1-4
		c-0.6-1.2-1.4-2.1-2.5-2.7s-2.3-0.9-3.6-0.7c-1.3,0.2-2.7,0.8-4,2c-1.1,1-2.2,2.4-3.3,4.3c-1.1,2-2.2,4.6-3.1,7.6
		c-0.8,2.6-1.3,5.5-1.6,8.4c-0.3,3-0.1,6.1,0.3,9.2l0.1,1c-1.7,1.4-3.5,2.7-5.4,3.8c-8.8,4.9-20.4,4.6-29.9,2.1
		c-2.3-0.6-4.5-1.4-6.4-2.3c-1.8-0.8-3.5-1.7-5-2.7c-1.6-1.1-3.1-2.3-4.3-3.4c-1.2-1.1-2.2-2.2-3-3.3s-1.6-2.3-2.3-3.6
		c-0.7-1.3-1.3-2.7-1.9-4.2c-0.5-1.4-0.9-2.8-1.1-4.2c-0.3-1.4-0.4-2.8-0.5-4.1c0-1.4,0-2.7,0-4c0-1.3,0.1-2.6,0.3-3.8
		c0.1-1.2,0.3-2.4,0.6-3.6c0.3-1.2,0.6-2.3,0.9-3.4c0.4-1,0.7-1.9,1.2-2.8c0.5-0.9,1-1.7,1.6-2.4l0.2-0.3c0.8,0.5,1.5,1,2.2,1.4
		c3.1,2,5.7,3.4,8.1,4.4c2.4,1,4.6,1.7,6.7,2.1c2.3,0.4,4.5,0.7,6.6,0.6c2,0,3.9-0.4,5.4-1c1.6-0.7,2.8-1.7,3.7-2.9
		c1.1-1.3,1.7-2.8,2.1-4.4c0.3-1.4,0.4-2.8,0.3-4.1c-0.1-1.4-0.5-2.8-1.1-4c-0.6-1.2-1.4-2.2-2.3-3.1c-1-0.9-2.1-1.6-3.4-2.2
		c-1.3-0.5-2.7-0.9-4.2-1.2c-1.5-0.2-3-0.3-4.7-0.2c-1.7,0.1-3.4,0.3-5.2,0.9s-3.7,1.3-5.6,2.3c-1.9,1-3.9,2.4-5.8,3.9
		c-1.1,1-2.3,2-3.4,3c-2.5-1.7-5.3-3.7-8.2-5.8l-2.3-1.7c1.4-1,2.8-2,4.1-2.9c2.4-1.6,4.8-3.2,7.2-4.6c2.4-1.4,4.8-2.7,7.3-3.8
		c2.4-1.1,4.9-2,7.5-2.8c2.6-0.8,5.1-1.4,7.8-1.8c2.7-0.4,5.5-0.6,8.2-0.7c2.5,0,5,0.2,7.1,0.6c5.2,1,10.7,4.5,14.1,8.6
		c1.1,1.3,2,2.6,2.6,3.9c0.7,1.3,1.1,2.6,1.4,4c0.3,1.4,0.3,2.9,0.3,4.4c-0.1,1.7-0.3,3.4-0.7,5.3c-0.4,1.7-0.9,3.4-1.5,5
		c-0.7,1.6-1.5,3.1-2.4,4.5c-1,1.5-2,2.8-3.1,3.9c-0.9,1-1.9,1.7-2.7,2.4c-0.4,0.3-0.8,0.6-1.2,0.9c-0.4-0.3-1.1-0.6-1.6-0.7
		c-0.3,0-0.7-0.1-1.1-0.1c-1,0.1-2.1,0.4-2.7,1.3c-0.9,1.1-0.8,2.6,0.3,3.5c1.4,1.1,3.4,0.4,4.9-0.2c1-0.4,2.1-1.1,3.4-2
		c1-0.7,2.1-1.7,3.1-2.7c1.2-1.3,2.4-2.7,3.5-4.4c1-1.5,1.9-3.2,2.6-5c0.7-1.8,1.3-3.7,1.7-5.5c0.4-2,0.7-4,0.7-5.8
		c0.1-1.8,0-3.5-0.3-5.1c-0.3-1.6-0.9-3.2-1.7-4.8c-3.2-6.3-9-11.1-15.7-14c-5.7-2.5-12-3.6-17.9-3.1c-2.8,0.2-6.1,0.7-9.5,1.5
		c-3,0.7-6.1,1.6-9.1,2.6c-3.2,1.2-6.2,2.6-9.3,4.3c-3,1.6-6,3.5-9.1,5.6c-1.6,1.1-3.2,2.2-4.8,3.3l-0.9-0.6
		c-4.3-3-8.7-5.9-12.8-8.4l-2.4-1.4l-3.1,1.9c1.3,0.7,2.5,1.4,3.8,2.3c4.1,2.5,8.4,5.4,12.6,8.3L302,539c-3.5,2.5-7,5-10.4,7.3
		c-2.9,1.9-5.7,3.6-8.4,5.1c-2.9,1.6-5.6,3-8,4c-2.3,1-4.4,1.7-6.4,2.3c-1.9,0.5-3.8,0.9-5.8,1.1c-2,0.2-4.2,0.2-6.3,0.1
		c-1.9-0.1-3.7-0.4-5.3-0.9c-4.4-1.3-8.6-4.1-10.7-8.3c-0.6-1.1-1-2.3-1.2-3.7c-0.3-1.3-0.4-2.8-0.4-4.2c0-1.5,0.1-3,0.3-4.4
		c0.2-1.3,0.5-2.5,1-3.7c0.4-1.1,1.1-2.3,2-3.5c1-1.4,2.4-2.8,3.9-4.1c1.4-1.1,2.9-2.2,4.6-3.1c1.7-0.9,3.6-1.6,5.7-2
		c2.1-0.5,4.4-0.8,6.7-0.9c2.2-0.1,4.6,0.1,7.1,0.6c2.1,0.4,4.3,1.1,6.9,2.1l3.4-2l-0.1-0.1c-3.6-1.6-6.7-2.6-9.5-3.2
		c-2.8-0.6-5.4-0.7-7.9-0.7c-2.5,0.1-5,0.4-7.3,0.9c-2.3,0.6-4.4,1.3-6.4,2.4c-1.9,1-3.6,2.2-5.2,3.5c-1.8,1.5-3.3,3.1-4.4,4.6
		c-1.1,1.4-1.9,2.8-2.4,4.3c-0.6,1.4-1,2.8-1.2,4.4c-0.2,1.5-0.3,3.2-0.3,4.9c0,1.6,0.2,3.3,0.5,4.8c0.3,1.6,0.8,3.1,1.5,4.4
		c1.5,3.1,3.9,5.6,6.6,7.7c1.4,1.1,3.1,2.1,4.8,3c1.7,0.9,3.5,1.6,5.4,2.1c3.9,1.1,7.7,1.3,11.7,0.9c2.1-0.2,4.3-0.6,6.4-1.1
		s4.1-1.1,6.3-2c2.1-0.9,4.4-1.9,6.8-3.2c2.3-1.2,4.7-2.6,7.2-4.2c2.8-1.7,5.7-3.6,8.5-5.6c2.7-1.9,5.5-3.9,8.2-5.8l3.2,2.3
		c2.7,2,5.4,3.9,7.9,5.6c-1.4,1.7-2.7,3.4-3.7,5.2c-1.1,2-2,4-2.7,6.2c-0.7,2.2-1.1,4.5-1.4,6.9c-0.3,2.4-0.3,4.7-0.1,7
		c0.2,2.3,0.6,4.4,1.3,6.5c0.6,2,1.5,4,2.6,5.9c1,1.9,2.3,3.7,3.7,5.4s3.1,3.4,5,4.9c2,1.6,4.2,3.1,6.7,4.4c2.3,1.2,4.7,2.2,7.3,3
		c2.7,0.8,5.6,1.3,8.6,1.5c2.9,0.2,6,0.1,9.1-0.3c3.1-0.4,6.3-1.1,9.4-2.1c3-1,5.9-2.2,8.5-3.7c1.7-0.9,3.2-2,4.6-3.1
		c1.1,4.6,2.9,8.9,5.2,12.9c1.6,2.8,3.4,5.3,5.2,7.5c3.4,4.1,7,7,10.5,9.9c3.6-2.9,7.1-5.9,10.5-9.9c1.9-2.2,3.6-4.7,5.2-7.5
		c2.3-4,4.1-8.3,5.3-12.9c1.4,1.1,3,2.1,4.6,3.1c2.6,1.4,5.5,2.7,8.5,3.7c3,1,6.2,1.7,9.4,2.1c3.1,0.4,6.1,0.5,9.1,0.3
		c3-0.2,5.9-0.7,8.6-1.5c2.6-0.7,5-1.8,7.3-3c2.4-1.3,4.7-2.8,6.7-4.4c1.9-1.6,3.6-3.2,5-4.9s2.7-3.5,3.7-5.4c1-1.9,1.9-3.9,2.6-5.9
		c0.6-2.1,1.1-4.2,1.3-6.5s0.1-4.6-0.1-7c-0.3-2.3-0.7-4.7-1.4-6.9c-0.7-2.2-1.6-4.3-2.7-6.2c-1-1.8-2.3-3.6-3.7-5.2
		c2.4-1.7,5.1-3.6,7.8-5.6l3.2-2.3c2.7,1.9,5.4,3.9,8.2,5.8c2.8,2,5.7,3.9,8.5,5.6c2.4,1.6,4.9,3,7.2,4.2c2.4,1.3,4.7,2.3,6.8,3.2
		c2.1,0.9,4.2,1.5,6.3,2c2.1,0.5,4.3,0.9,6.4,1.1c4,0.4,7.9,0.2,11.7-0.9c1.9-0.5,3.7-1.3,5.4-2.1c1.7-0.9,3.3-1.9,4.8-3
		c2.7-2.1,5.1-4.6,6.6-7.7c0.7-1.4,1.1-2.9,1.4-4.4c0.3-1.5,0.5-3.1,0.5-4.8C564.9,540.1,564.8,538.4,564.6,536.9z M473.3,551.3
		c-3,1.9-5.4,3.2-7.6,4.2c-2.2,1-4.1,1.6-6.1,1.9c-2,0.4-4,0.6-5.8,0.6c-1.6,0-3.1-0.3-4.3-0.8c-1-0.4-1.9-1.1-2.4-1.9
		c-0.7-0.9-1.2-2-1.5-3.1c-0.3-1-0.3-2.1-0.3-3.1c0.1-1,0.4-2,0.8-2.8c0.4-0.8,1-1.5,1.6-2.1c0.7-0.6,1.6-1.2,2.5-1.6
		c1-0.4,2.2-0.8,3.4-1c1.2-0.2,2.6-0.3,4-0.2c1.4,0.1,3,0.3,4.5,0.7c1.6,0.4,3.2,1.1,4.9,2.1c1.7,0.9,3.6,2.2,5.3,3.6
		c0.9,0.8,1.9,1.6,2.7,2.4L473.3,551.3z M328.3,547.7c1.7-1.4,3.5-2.7,5.3-3.6c1.7-1,3.4-1.6,4.9-2.1c1.6-0.4,3.1-0.6,4.5-0.7
		c1.4-0.1,2.8,0,4,0.2c1.2,0.2,2.4,0.6,3.4,1c1,0.4,1.8,1,2.6,1.6c0.7,0.6,1.2,1.3,1.6,2.1c0.4,0.9,0.7,1.8,0.8,2.8
		c0.1,1,0,2.1-0.2,3.1c-0.3,1.1-0.7,2.2-1.5,3.1c-0.6,0.8-1.4,1.4-2.5,1.9c-1.2,0.5-2.6,0.8-4.3,0.8c-1.8,0.1-3.8-0.1-5.8-0.6
		c-1.9-0.4-3.9-1-6-1.9c-2.2-1-4.7-2.3-7.7-4.2l-1.8-1.2C326.4,549.3,327.3,548.5,328.3,547.7z M381.3,585c0.2-2.7,0.7-5.4,1.4-7.8
		c0.8-2.7,1.8-5.1,2.8-6.9c0.9-1.6,1.7-2.7,2.6-3.4c0.9-0.8,1.6-1.1,2.3-1.3c0.6-0.1,1.1,0,1.5,0.3c0.5,0.3,1,0.8,1.3,1.4
		c0.4,0.7,0.6,1.5,0.6,2.6c0,1.2-0.2,2.6-0.9,4.4c-0.7,1.9-1.8,4.1-3.1,6.5c-1.4,2.4-3,4.9-4.8,7.1c-1.1,1.6-2.4,3-3.7,4.3
		C381.2,589.8,381.2,587.4,381.3,585z M419.2,592.3c-1.3-1.3-2.5-2.7-3.7-4.3c-1.7-2.2-3.4-4.7-4.8-7.1c-1.3-2.4-2.4-4.6-3.1-6.5
		c-0.6-1.8-0.9-3.3-0.9-4.4c0-1.1,0.3-1.9,0.6-2.6c0.4-0.7,0.8-1.1,1.3-1.4c0.4-0.3,0.9-0.4,1.5-0.3c0.7,0.1,1.5,0.5,2.4,1.3
		c0.9,0.8,1.7,1.9,2.6,3.4c1,1.8,2,4.2,2.8,6.9c0.7,2.4,1.2,5,1.4,7.8C419.5,587.4,419.4,589.8,419.2,592.3z"/>
	<path id="XMLID_8_" class="st0" d="M180.6,288.3h-66l-2.4,3.3h69.6C181.4,290.5,180.9,289.5,180.6,288.3z"/>
	<path id="XMLID_7_" class="st0" d="M609,498.1c-1.7-0.9-3.7-1.7-5.8-2.1c-2-0.4-4.1-0.6-6.2-0.6c-2.4,0-4.7,0.2-6.6,0.5
		c-1.6,0.3-2.9,0.7-3.9,1c-1.3,0.6-2.3,1.2-2.7,1.8c-0.3,0.4-0.6,0.9-0.6,1.4c-0.2,1.5,1.1,2.7,2.6,2.4c1.2-0.2,2.2-1.3,2.6-2.4
		c0-0.2,0.1-0.3,0.1-0.5c0.6-0.2,1.4-0.4,2.3-0.5c1.7-0.3,3.9-0.5,6.1-0.5c1.9,0,3.7,0.2,5.6,0.6c1.8,0.4,3.5,1,5,1.8
		c1.6,0.9,3,1.9,4.1,3c3.5,3.5,4.7,9,4.6,13.8c-0.1,2.1-0.5,4.3-1.3,6.4c-0.9,2.3-2.4,4.7-4.4,6.8c-1.9,2-4.3,3.8-7.1,5.3
		c-2.9,1.5-6.4,2.8-10.2,3.7c-4.1,1-8.5,1.7-12.6,2c-3.9,0.3-7.6,0.2-11.2-0.1c-1.2-0.1-2.3-0.3-3.5-0.4v0.3c0,1.7-0.2,3.3-0.5,5
		c-0.2,0.9-0.4,1.7-0.7,2.5l1.1,0.1c3.9,0.6,7.8,0.9,11.5,1c3.5,0,6.7-0.2,9.7-0.6c3.3-0.4,6.3-1.1,9-2c2.6-0.8,4.9-1.7,7-2.7
		c2.1-1,3.9-2.1,5.6-3.2s3-2.1,4.3-3.4c1.3-1.2,2.4-2.6,3.4-4.1c1-1.6,1.9-3.3,2.7-5.1c0.7-1.8,1.3-3.6,1.6-5.4
		c1.2-7-1.6-17.3-6.5-22.2C612.6,500.4,610.9,499.1,609,498.1z"/>
	<path id="XMLID_6_" class="st0" d="M620.1,510.7H686l2.5-3.3h-69.7C619.3,508.5,619.7,509.6,620.1,510.7z"/>
	<path id="XMLID_5_" class="st0" d="M378.4,520.5c0.3-0.2,0.5-0.5,0.6-0.9c0.1-0.4,0.2-1.1,0.1-2.1c-0.4-3-1.9-6.4-3.4-8.9
		c-1.2-2-2.8-4.1-4.6-6.1c-1.6-1.8-3.5-3.5-5.5-4.9c-2.1-1.5-4.4-2.6-6.8-3.4c-2.4-0.8-5-1.3-8-1.6c-3.1-0.3-6.6-0.3-10.3,0.1
		c-3.2,0.3-6.7,1-10.2,2.1c-3.8,1.2-7.7,2.8-12.2,5c-4.4,2.2-9.1,4.9-14.7,8.2c-4,2.4-7.9,4.8-11.9,7.2c-8.2,5-16.8,10.3-23.9,14.3
		c-8.3,4.6-16.4,8.3-25.5,10.6l-2.1,0.5c0,0.4,0,0.8,0,1.2c0,1.4,0.1,2.7,0.4,4.1c0.2,0.9,0.4,1.7,0.7,2.5c1.7-0.4,3.5-0.8,5.1-1.3
		c3.6-1,7-2.3,10.5-3.9c3.4-1.6,6.9-3.3,10.8-5.5c3.6-2,7.5-4.2,11.5-6.6c4.6-2.7,9.3-5.6,13.8-8.4l6.8-4.3
		c5.6-3.6,10.7-6.8,15.4-9.4c3.2-1.9,6.1-3.4,8.9-4.7c2.8-1.3,5.4-2.3,7.9-3.1c2.5-0.8,5-1.4,7.3-1.9c2.3-0.4,4.5-0.7,6.4-0.9
		c2-0.2,3.7-0.3,5.3-0.3c1.6,0,3,0.1,4.5,0.3c7.5,1,13.7,5.1,17.6,11.7c1.2,2,2.3,4.5,2.9,6.8c-0.2,0.5-0.3,1.1-0.3,1.7
		C375.5,520.1,376.9,521.7,378.4,520.5z"/>
	<path id="XMLID_4_" class="st0" d="M186.2,288.3c0.3,1.1,0.8,2.2,1.4,3.3h102.1l2.5-3.3H186.2z"/>
	<path id="XMLID_3_" class="st0" d="M186.2,510.7h106l-2.5-3.3H187.6C187,508.5,186.6,509.6,186.2,510.7z"/>
	<path id="XMLID_2_" class="st0" d="M379,279.4c-0.1-0.4-0.3-0.7-0.6-0.9c-1.5-1.1-2.9,0.4-2.9,1.9c0,0.6,0.1,1.1,0.3,1.6
		c-0.5,2.4-1.6,4.8-2.9,6.8c-4,6.6-10.1,10.7-17.6,11.7c-1.5,0.2-2.9,0.3-4.5,0.3c-1.6,0-3.3-0.1-5.3-0.3c-1.9-0.2-4.1-0.4-6.4-0.9
		c-2.3-0.4-4.8-1-7.3-1.8c-2.5-0.8-5.1-1.9-7.9-3.1c-2.7-1.3-5.7-2.8-8.9-4.6c-4.7-2.7-9.8-5.9-15.4-9.5l-6.8-4.3
		c-4.5-2.8-9.2-5.7-13.8-8.4c-4-2.4-7.9-4.7-11.5-6.6c-3.9-2.1-7.4-3.9-10.8-5.5c-3.5-1.6-6.9-2.8-10.5-3.9
		c-1.7-0.5-3.4-0.9-5.1-1.3c-0.3,0.8-0.6,1.6-0.7,2.5c-0.3,1.3-0.4,2.7-0.4,4.1c0,0.4,0,0.8,0,1.2l2.1,0.5
		c9.1,2.3,17.2,6.1,25.5,10.6c7.1,3.9,15.7,9.2,23.9,14.3c4,2.4,7.9,4.8,11.9,7.3c5.5,3.3,10.3,6,14.7,8.2c4.4,2.2,8.3,3.9,12.2,5
		c3.6,1.1,7,1.7,10.2,2.1c3.7,0.4,7.2,0.3,10.3,0c2.9-0.3,5.6-0.8,8-1.6c2.4-0.8,4.7-1.9,6.8-3.4c2-1.4,3.9-3.1,5.5-4.9
		c1.9-2,3.4-4.1,4.6-6.1c1.6-2.6,3-5.9,3.4-8.9C379.2,280.5,379.1,279.9,379,279.4z"/>
	<path id="XMLID_1_" class="st0" d="M191.6,300.9c1.7,1,3.7,1.7,5.8,2.1c2,0.4,4.1,0.6,6.2,0.7c2.4,0,4.8-0.2,6.6-0.5
		c1.6-0.3,2.9-0.6,3.9-1c1.4-0.6,2.3-1.2,2.7-1.8c0.4-0.4,0.6-0.9,0.6-1.4c0.2-1.4-1.1-2.6-2.6-2.4c-1.1,0.2-2.1,1.3-2.6,2.4
		c-0.1,0.1-0.1,0.3-0.2,0.5c-0.6,0.2-1.4,0.4-2.3,0.6c-1.7,0.3-3.9,0.5-6,0.4c-1.9,0-3.8-0.2-5.6-0.6c-1.9-0.4-3.5-1.1-5-1.9
		c-1.6-0.9-3-1.9-4.1-3c-3.5-3.5-4.8-9-4.6-13.8c0.1-2.1,0.4-4.3,1.3-6.4c0.9-2.3,2.4-4.7,4.4-6.8c1.9-2,4.2-3.8,7.1-5.3
		c3-1.6,6.5-2.8,10.2-3.7c4.1-1,8.5-1.7,12.6-2c3.9-0.3,7.6-0.2,11.2,0.1c1.2,0.1,2.4,0.3,3.5,0.4l0-0.3c0-1.7,0.2-3.3,0.5-5
		c0.1-0.8,0.4-1.7,0.6-2.4l-1.1-0.2c-3.9-0.6-7.8-0.9-11.5-0.9c-3.4,0-6.7,0.1-9.6,0.6c-3.3,0.4-6.3,1.1-9,2c-2.6,0.8-4.9,1.7-7,2.7
		c-2.1,1-3.9,2.1-5.5,3.1c-1.7,1.1-3.1,2.2-4.3,3.4c-1.3,1.2-2.4,2.6-3.4,4.1c-1,1.5-1.9,3.3-2.6,5.1c-0.7,1.8-1.3,3.6-1.6,5.4
		c-1.2,7,1.5,17.3,6.4,22.3C188.1,298.7,189.7,299.9,191.6,300.9z"/>
</g>
</svg>
