<?xml version="1.0" standalone="no"?>
<!DOCTYPE svg PUBLIC "-//W3C//DTD SVG 20010904//EN"
 "http://www.w3.org/TR/2001/REC-SVG-20010904/DTD/svg10.dtd">
<svg version="1.0" xmlns="http://www.w3.org/2000/svg"
 width="400.000000pt" height="400.000000pt" viewBox="0 0 400.000000 400.000000"
 preserveAspectRatio="xMidYMid meet">
<metadata>
Created by potrace 1.14, written by Peter Selinger 2001-2017
</metadata>
<g transform="translate(0.000000,400.000000) scale(0.100000,-0.100000)"
fill="#000000" stroke="none">
<path d="M1464 3969 c-2 -4 -1 -44 2 -88 l7 -81 -151 0 c-87 0 -153 -4 -157
-10 -3 -5 7 -42 23 -82 17 -40 28 -75 26 -77 -2 -2 -74 -3 -161 -3 -87 1 -164
-2 -171 -7 -12 -7 -14 -276 -14 -1609 0 -881 3 -1606 7 -1611 3 -6 48 -10 103
-10 53 0 130 0 169 0 l73 -1 -26 -67 c-44 -115 -53 -108 125 -111 l154 -3 -7
-94 c-6 -87 -6 -95 11 -96 10 -1 262 -3 560 -3 575 -2 557 -3 548 44 -2 12 -7
50 -10 86 l-7 64 147 0 c112 0 147 3 151 13 3 8 -7 46 -21 86 -15 40 -24 75
-22 77 3 3 75 5 161 5 146 -1 157 0 164 18 9 27 8 3194 -2 3209 -5 9 -38 12
-109 12 -199 -3 -230 -1 -220 13 18 23 55 136 48 146 -4 7 -60 11 -152 11
l-145 0 7 58 c3 31 8 69 11 85 2 15 1 28 -3 29 -28 6 -1115 3 -1119 -3z"/>
</g>
</svg>
