<svg id="svg" version="1.1" xmlns="http://www.w3.org/2000/svg" xmlns:xlink="http://www.w3.org/1999/xlink" width="400" height="40.33613445378152" viewBox="0, 0, 400,40.33613445378152"><path d="M177.377 7.003 C 176.878 7.773,176.471 9.405,176.471 10.629 C 176.471 14.353,168.890 17.344,159.104 17.480 C 154.482 17.545,150.196 17.731,149.580 17.895 C 148.964 18.059,147.997 18.105,147.431 17.997 C 142.684 17.096,3.892 18.069,2.951 19.010 C 2.283 19.678,2.243 20.175,2.857 20.184 C 3.443 20.192,37.199 20.377,77.871 20.594 C 118.543 20.811,152.325 21.048,152.941 21.121 C 153.557 21.194,156.248 20.952,158.920 20.584 C 162.258 20.124,165.237 20.515,168.443 21.836 C 176.007 24.951,176.488 25.354,176.169 28.306 C 175.787 31.854,179.554 33.094,183.287 30.648 C 184.722 29.708,186.387 29.242,186.988 29.614 C 187.589 29.985,188.343 29.865,188.663 29.346 C 189.355 28.227,180.979 23.844,173.109 21.207 L 167.507 19.330 170.868 18.056 C 172.717 17.356,174.604 16.782,175.062 16.780 C 175.520 16.779,177.788 15.697,180.104 14.376 C 182.419 13.055,185.441 11.373,186.818 10.638 C 189.861 9.016,188.968 7.843,184.687 7.843 C 182.941 7.843,181.513 7.339,181.513 6.723 C 181.513 5.127,178.457 5.334,177.377 7.003 M216.807 6.723 C 216.426 7.339,214.631 7.843,212.819 7.843 C 211.007 7.843,209.524 8.249,209.524 8.744 C 209.524 9.988,225.311 17.965,227.731 17.944 C 231.243 17.914,229.797 20.034,225.490 21.230 C 223.179 21.871,220.928 22.399,220.487 22.403 C 220.046 22.406,217.301 23.922,214.385 25.770 C 209.699 28.742,209.027 29.792,212.175 29.221 C 212.709 29.124,214.353 29.836,215.828 30.802 C 219.257 33.049,223.057 31.355,222.671 27.753 C 222.468 25.861,223.543 24.759,227.451 22.855 L 232.493 20.397 313.725 20.296 C 358.403 20.241,395.437 20.189,396.022 20.181 C 396.622 20.174,396.570 19.652,395.904 18.986 C 395.098 18.179,373.901 17.851,329.294 17.953 C 293.308 18.035,263.109 18.042,262.185 17.969 C 261.261 17.895,257.816 17.851,254.530 17.872 C 251.245 17.892,247.620 17.407,246.475 16.794 C 245.091 16.054,244.161 16.057,243.699 16.804 C 241.160 20.913,222.409 15.211,222.409 10.329 C 222.409 6.823,218.357 4.214,216.807 6.723 M183.274 16.796 L 174.391 19.809 179.423 20.498 C 182.190 20.878,186.811 22.198,189.691 23.433 C 194.885 25.660,194.938 25.660,196.103 23.483 C 197.609 20.670,200.009 20.684,201.994 23.516 C 203.551 25.739,203.565 25.739,208.206 23.497 C 210.765 22.261,215.256 20.921,218.187 20.519 L 223.515 19.789 215.679 17.121 C 211.369 15.654,206.897 14.151,205.741 13.782 C 204.416 13.358,203.255 13.794,202.604 14.958 C 201.290 17.306,196.078 17.440,196.078 15.126 C 196.078 12.908,193.903 13.191,183.274 16.796 "></path></svg>
